<?xml version="1.0" encoding="utf-8"?>
<!-- Generator: Adobe Illustrator 18.0.0, SVG Export Plug-In . SVG Version: 6.00 Build 0)  -->
<!DOCTYPE svg PUBLIC "-//W3C//DTD SVG 1.1//EN" "http://www.w3.org/Graphics/SVG/1.1/DTD/svg11.dtd">
<svg version="1.1" id="Layer_1" xmlns="http://www.w3.org/2000/svg" xmlns:xlink="http://www.w3.org/1999/xlink" x="0px" y="0px"
	 viewBox="0 0 300 370" enable-background="new 0 0 300 370" xml:space="preserve">
<path fill-rule="evenodd" clip-rule="evenodd" fill="#13BF9E" d="M139.6,32.5c5.7-3.3,15.1-3.3,20.8,0l129.2,74.7
	c5.7,3.3,10.4,11.4,10.4,18v149.5c0,6.6-4.7,14.7-10.4,18l-129.2,74.7c-5.7,3.3-15.1,3.3-20.8,0L10.4,292.8
	C4.7,289.5,0,281.4,0,274.7V125.3c0-6.6,4.7-14.7,10.4-18L139.6,32.5z"/>
<g>
	<path fill-rule="evenodd" clip-rule="evenodd" fill="#99E0D2" d="M192.6,216h-85.1c-4.6,0-8.4,3.7-8.4,8.3v61.4
		c0,4.6,3.8,8.3,8.4,8.3h74.2l19.4,20v-20v-69.7C201,219.7,197.2,216,192.6,216z"/>
</g>
<path fill-rule="evenodd" clip-rule="evenodd" fill="#90D4C6" d="M187,275c0,1.1-0.9,2-2,2h-70c-1.1,0-2-0.9-2-2c0-1.1,0.9-2,2-2h70
	C186.1,273,187,273.9,187,275z M185,260h-70c-1.1,0-2,0.9-2,2c0,1.1,0.9,2,2,2h70c1.1,0,2-0.9,2-2C187,260.9,186.1,260,185,260z
	 M185,247h-70c-1.1,0-2,0.9-2,2c0,1.1,0.9,2,2,2h70c1.1,0,2-0.9,2-2C187,247.9,186.1,247,185,247z M115,238h70c1.1,0,2-0.9,2-2
	c0-1.1-0.9-2-2-2h-70c-1.1,0-2,0.9-2,2C113,237.1,113.9,238,115,238z"/>
<g>
	<path fill-rule="evenodd" clip-rule="evenodd" fill="#EDEDED" d="M135,118H1.6c-1,2.4-1.6,4.9-1.6,7.3V258h115.4l34.6,36v-36V133.1
		C150,124.8,143.2,118,135,118z"/>
</g>
<path fill="#DFDFDF" d="M122,206H0v-8h122c2.2,0,4,1.8,4,4S124.2,206,122,206z M122,174H0v8h122c2.2,0,4-1.8,4-4S124.2,174,122,174z
	 M126,226c0-2.2-1.8-4-4-4H0v8h122C124.2,230,126,228.2,126,226z M122,150H0v8h122c2.2,0,4-1.8,4-4S124.2,150,122,150z"/>
<g>
	<path fill-rule="evenodd" clip-rule="evenodd" fill="#FFFFFF" d="M251,0H49C38,0,29,9,29,20v148c0,11,9,20,20,20h176l46,46v-46V20
		C271,9,262,0,251,0z"/>
	<path fill="#EFEFEF" d="M251,2c9.9,0,18,8.1,18,18v168v41.2l-42.6-42.6l-0.6-0.6H225H49c-9.9,0-18-8.1-18-18V20c0-9.9,8.1-18,18-18
		H251 M251,0H49C38,0,29,9,29,20v148c0,11,9,20,20,20h176l46,46v-46V20C271,9,262,0,251,0L251,0z"/>
</g>
<path fill-rule="evenodd" clip-rule="evenodd" fill="#DFDFDF" d="M238,144c0,3.3-2.7,6-6,6H68c-3.3,0-6-2.7-6-6s2.7-6,6-6h164
	C235.3,138,238,140.7,238,144z M232,106H68c-3.3,0-6,2.7-6,6s2.7,6,6,6h164c3.3,0,6-2.7,6-6S235.3,106,232,106z M132,86h100
	c3.3,0,6-2.7,6-6s-2.7-6-6-6H132c-3.3,0-6,2.7-6,6S128.7,86,132,86z"/>
<path fill-rule="evenodd" clip-rule="evenodd" fill="#CCCCCC" d="M232,54H132c-3.3,0-6-2.7-6-6v0c0-3.3,2.7-6,6-6h100
	c3.3,0,6,2.7,6,6v0C238,51.3,235.3,54,232,54z"/>
<path fill-rule="evenodd" clip-rule="evenodd" fill="#13BF9E" d="M101.7,56.5L87,74.9c-0.7,0.9-1.7,1.4-2.8,1.4H84
	c-1.1,0-2.1-0.5-2.8-1.3l-7-7.4c-1.4-1.6-1.4-4.1,0.2-5.6c1.6-1.5,4-1.4,5.5,0.2l4,4.3l11.9-14.9c1.3-1.7,3.8-2,5.5-0.6
	C102.8,52.3,103,54.8,101.7,56.5z M111.9,50.2c0-1.2-0.8-2.5-1.8-3.1L88.6,34.4c-0.9-0.6-2.6-0.6-3.5,0L63.7,47.2
	c-0.9,0.6-1.7,2-1.7,3.1l0.1,25.5c0,1.2,0.8,2.5,1.8,3.1l21.5,12.6c0.9,0.6,2.6,0.6,3.5,0l21.4-12.8c0.9-0.6,1.7-2,1.7-3.1
	L111.9,50.2z"/>
</svg>
