<?xml version="1.0" encoding="utf-8"?>
<!-- Generator: Adobe Illustrator 18.0.0, SVG Export Plug-In . SVG Version: 6.00 Build 0)  -->
<!DOCTYPE svg PUBLIC "-//W3C//DTD SVG 1.1//EN" "http://www.w3.org/Graphics/SVG/1.1/DTD/svg11.dtd">
<svg version="1.1" id="Layer_1" xmlns="http://www.w3.org/2000/svg" xmlns:xlink="http://www.w3.org/1999/xlink" x="0px" y="0px"
	 viewBox="697.1 -340.1 861.2 1061.9" enable-background="new 697.1 -340.1 861.2 1061.9" xml:space="preserve">
<path fill="#FF4D63" d="M705.4,74.4l470.8,80.3L697.7,14.5c-0.3,2.3-0.6,4.6-0.6,6.9l0.3,52.5C700,73.9,702.8,73.9,705.4,74.4z"/>
<path fill="#FF4D63" d="M988,313.1c4.9-4,9.8-7.7,14.9-11.5L698,242.8v15.5c0.3,0,0.3,0,0.6,0L988,313.1z"/>
<path fill="#FF4D63" d="M1556.3,17.6c0-19.2-13.8-43-30.4-52.5l-369.8-212.6c-16.6-9.5-43.9-9.5-60.5,0.3L757.6-49.2l494.9,145.2
	l0,0l0.6,0.3l-2.3-6.6l-76.3-83.5c-34.4-37.6-31.8-96.7,6-131.1l174.1,190.8c70.9,77.5,137.1,182.7,156.1,292
	c8.3,48.2,4.9,106.4-9.5,157.2l27-15.8c16.6-9.8,30.1-33.6,30.1-52.8L1556.3,17.6z"/>
<path fill="#FF4D63" d="M1006.3,221.9l-2.6,79.2c45.6-33,104.1-58.8,166.1-68.3l-472.2-80.6v11.5c1.4,0,2.9,0.3,4.3,0.6
	L1006.3,221.9z"/>
<path fill="#FF4D63" d="M915.4,457.4c-6-23.8-0.9-49.6,13.2-75.2l-230.1-44.5l0.3,111.9l0,0c0,19.2,13.8,43,30.4,52.5L1099,714.7
	c16.6,9.5,43.9,9.5,60.5-0.3l56.5-33C1081.5,669.1,948.4,585.6,915.4,457.4z"/>
<path fill="#F7C8AD" d="M988,313.1l-289.2-54.8c-0.3,0-0.3,0-0.6,0l0.3,79.5l230.1,44.5C941.5,358.1,962.2,334.6,988,313.1z"/>
<path fill="#F7C8AD" d="M1003.8,301.1l2.6-79.2L702,164.2c-1.4-0.3-2.9-0.6-4.3-0.6l0.3,79.2l304.9,58.8
	C1003.2,301.3,1003.5,301.1,1003.8,301.1z"/>
<path fill="#F7C8AD" d="M1219.8,229.1c10.9,0,21.8,0.6,32.4,1.4V96.2L757.3-48.9l-30.4,17.8c-14.6,8.6-27,28.1-29.5,45.9L1175.9,155
	L705.1,74.7c-2.6-0.6-5.5-0.9-8-0.9l0.3,78.6l472.2,80.6C1186.5,230.2,1203.1,229.1,1219.8,229.1z"/>
<polygon fill="#EB8552" points="1252.5,95.9 1253,96.1 1253,96.1 "/>
<path fill="#EDB091" d="M1252.5,248l-82.6-15.2c-62,9.5-120.5,35-166.1,68.3v0.9l-0.9-0.3c-5.2,3.7-10,7.5-14.9,11.5l14.9,2.9
	l-2.6,80l-72-13.8c-14.1,25.5-19.2,51.6-13.2,75.2c33.3,128.2,166.4,211.7,300.9,224l137.4-80.6
	C1213.2,557.2,1182.5,375.6,1252.5,248z"/>
<path fill="#EB8552" d="M928.6,382.2l72,13.8l2.6-80l-14.9-2.9C962.2,334.6,941.5,358.1,928.6,382.2z"/>
<path fill="#EB8552" d="M1003.8,301.9v-0.9c-0.3,0.3-0.6,0.6-0.9,0.6L1003.8,301.9z"/>
<path fill="#EDB091" d="M1219.8,229.1c-16.9,0-33.6,1.4-49.9,3.7l82.6,19.2c2.9-5.5,17.2-3.4,19.5-9.2c8.3-23.2,43-37.6,52.2-48.2
	L1253,95.9l-0.6-0.3v134.3C1241.9,229.3,1231,229.1,1219.8,229.1z"/>
<path fill="#F7C8AD" d="M1255.1,247.1c-70,127.9-41.6,310.1,98.7,353.4l93.8-54.8V305.6c-33.6-28.4-76.3-50.5-124.8-63.4L1336,182
	l-16.9,76.3L1255.1,247.1z"/>
<polygon fill="#FCC490" points="1312.4,113.4 1253.1,95.9 1253.1,95.9 "/>
<path fill="#323A43" d="M832.5-340.1h366.9c29.3,0,53.1,23.8,53.1,53.1v820.7c0,29.3-23.8,53.1-53.1,53.1H875.8
	c-26.1-14.9-59.7-34.1-96.4-55.4v-818.2C779.4-316.3,803.5-340.1,832.5-340.1z"/>
<rect x="820.4" y="-215" fill="#E9F4F4" width="391.3" height="676.4"/>
<path fill="#106E6E" d="M874.1-107.7h283.7c10,0,18.4,8.3,18.4,18.6V82.5c0,10-8.3,18.6-18.6,18.6H873.8c-10,0-18.4-8.3-18.4-18.6
	V-89.1C855.7-99.1,864.1-107.7,874.1-107.7z"/>
<rect x="820.4" y="-215" fill="#189E9A" width="391.3" height="55.4"/>
<path fill="#B1BCC6" d="M866.6,157h298.9c6,0,10.9,4.9,10.9,10.9V184c0,6-4.9,10.9-10.9,10.9H866.6c-6,0-10.9-4.9-10.9-10.9V168
	C855.7,161.9,860.6,157,866.6,157z"/>
<path fill="#B1BCC6" d="M866.6,229.1h298.9c6,0,10.9,4.9,10.9,10.9V256c0,6-4.9,10.9-10.9,10.9H866.6c-6,0-10.9-4.9-10.9-10.9V240
	C855.7,233.9,860.6,229.1,866.6,229.1z"/>
<path fill="#F14F62" d="M866.6,325.2h298.9c6,0,10.9,4.9,10.9,10.9v55.4c0,6-4.9,10.9-10.9,10.9H866.6c-6,0-10.9-4.9-10.9-10.9
	v-55.4C855.7,330,860.6,325.2,866.6,325.2z"/>
<path fill="#DBDEE1" d="M982.8-284.4h75.2c3.7,0,6.9,3.2,6.9,6.9l0,0c0,3.7-3.2,6.9-6.9,6.9h-75.2c-3.7,0-6.9-3.2-6.9-6.9l0,0
	C976.2-281.3,979.1-284.4,982.8-284.4z"/>
<path fill="#DBDEE1" d="M932-264.7c7.5,0,13.5-6,13.5-13.5s-6-13.5-13.5-13.5s-13.5,6-13.5,13.5C918.6-270.7,924.6-264.7,932-264.7z
	"/>
<path fill="#DBDEE1" d="M1016.1,490.4c18.4,0,33.6,14.9,33.6,33.6c0,18.4-14.9,33.6-33.6,33.6c-18.6,0-33.6-14.9-33.6-33.6
	C982.5,505.6,997.4,490.4,1016.1,490.4z"/>
<path fill="#F7C8AD" d="M1267.4,137.8c11.8,16.9,17.5,41,15.5,57.1c-2,14.9-27.8,52.5-27.8,52.5c48.5,13.2,141.1,37.6,174.7,66
	l18.1,232.7l53.1-31.3c14.6-50.5,17.8-109,9.5-157.2c-18.9-109.3-88.9-210.9-147.5-298.1c-28.7-42.7-94.4-156.9-158.9-159.8
	c-51.1-2.3-63.4,70-29,107.6"/>
</svg>
