<?xml version="1.0" encoding="utf-8"?>
<!-- Generator: Adobe Illustrator 18.0.0, SVG Export Plug-In . SVG Version: 6.00 Build 0)  -->
<!DOCTYPE svg PUBLIC "-//W3C//DTD SVG 1.1//EN" "http://www.w3.org/Graphics/SVG/1.1/DTD/svg11.dtd">
<svg version="1.1" id="Layer_1" xmlns="http://www.w3.org/2000/svg" xmlns:xlink="http://www.w3.org/1999/xlink" x="0px" y="0px"
	 viewBox="0 0 346 340" enable-background="new 0 0 346 340" xml:space="preserve">
<path fill-rule="evenodd" clip-rule="evenodd" fill="#728ADF" d="M185.6,2.5c5.7-3.3,15.1-3.3,20.8,0l129.2,74.7
	c5.7,3.3,10.4,11.4,10.4,18v149.5c0,6.6-4.7,14.7-10.4,18l-129.2,74.7c-5.7,3.3-15.1,3.3-20.8,0L56.4,262.8
	c-5.7-3.3-10.4-11.4-10.4-18V95.3c0-6.6,4.7-14.7,10.4-18L185.6,2.5z"/>
<path fill-rule="evenodd" clip-rule="evenodd" fill="#FF4D62" d="M178.6,184.9l3.9,44.1l-49.1,4.3c0.3,1.3,0.5,2.6,0.7,4
	c1.2,13.8-9,25.9-22.7,27.1c-13.8,1.2-25.9-9-27.1-22.7c-0.1-1.4-0.1-2.7,0-4L35,242l-3.9-44.1c-1.3,0.3-2.6,0.5-4,0.7
	c-13.8,1.2-25.9-9-27.1-22.7c-1.2-13.8,9-25.9,22.7-27.1c1.4-0.1,2.7-0.1,4,0L23,104.5l49.1-4.3c-0.1,1.3-0.1,2.7,0,4
	c1.2,13.8,13.3,23.9,27.1,22.7c13.8-1.2,23.9-13.3,22.7-27.1c-0.1-1.4-0.3-2.7-0.7-4l49.1-4.3l3.9,44.1c-1.3-0.1-2.7-0.1-4,0
	c-13.8,1.2-23.9,13.3-22.7,27.1s13.3,23.9,27.1,22.7C176,185.5,177.3,185.2,178.6,184.9z"/>
<path fill-rule="evenodd" clip-rule="evenodd" fill="#FFFFFF" d="M255.6,63.2c1.6-1.6,1.6-4.1,0-5.7c-1.6-1.6-4.1-1.6-5.7,0
	l-15.6,15.6c-1.6,1.6-1.6,4.1,0,5.7c1.6,1.6,4.1,1.6,5.7,0L255.6,63.2z M136.4,63.2c-1.6-1.6-1.6-4.1,0-5.7c1.6-1.6,4.1-1.6,5.7,0
	l15.6,15.6c1.6,1.6,1.6,4.1,0,5.7c-1.6,1.6-4.1,1.6-5.7,0L136.4,63.2z M195,41.1c0-2.2,1.8-4,4-4c2.2,0,4,1.8,4,4v22
	c0,2.2-1.8,4-4,4c-2.2,0-4-1.8-4-4V41.1z M255.6,276.8c1.6,1.6,1.6,4.1,0,5.7c-1.6,1.6-4.1,1.6-5.7,0l-15.6-15.6
	c-1.6-1.6-1.6-4.1,0-5.7c1.6-1.6,4.1-1.6,5.7,0L255.6,276.8z M136.4,276.8c-1.6,1.6-1.6,4.1,0,5.7c1.6,1.6,4.1,1.6,5.7,0l15.6-15.6
	c1.6-1.6,1.6-4.1,0-5.7c-1.6-1.6-4.1-1.6-5.7,0L136.4,276.8z M195,298.9c0,2.2,1.8,4,4,4c2.2,0,4-1.8,4-4v-22c0-2.2-1.8-4-4-4
	c-2.2,0-4,1.8-4,4V298.9z"/>
<path fill-rule="evenodd" clip-rule="evenodd" fill="#194695" d="M326.5,248l18.2,3.2c0.8-2.2,1.3-4.4,1.3-6.5V95.3
	c0-3.5-1.3-7.4-3.4-10.8c-3.2-2.6-7.1-4.5-11.5-5.2c-13.6-2.4-26.6,6.7-29,20.3c-0.2,1.3-0.4,2.7-0.4,4L253.3,95l-7.7,43.6
	c-1.2-0.4-2.5-0.8-3.9-1c-13.6-2.4-26.6,6.7-29,20.3c-2.4,13.6,6.7,26.6,20.3,29c1.3,0.2,2.7,0.4,4,0.4l-7.7,43.6l48.6,8.6
	c0-1.3,0.1-2.7,0.4-4c2.4-13.6,15.4-22.7,29-20.3c13.6,2.4,22.7,15.4,20.3,29C327.3,245.5,326.9,246.8,326.5,248z"/>
</svg>
