<?xml version="1.0" encoding="UTF-8" standalone="no"?>
<svg width="720px" height="130px" viewBox="0 0 720 130" version="1.1" xmlns="http://www.w3.org/2000/svg" xmlns:xlink="http://www.w3.org/1999/xlink" xmlns:sketch="http://www.bohemiancoding.com/sketch/ns">
    <!-- Generator: Sketch 3.4.4 (17249) - http://www.bohemiancoding.com/sketch -->
    <title>stars</title>
    <desc>Created with Sketch.</desc>
    <defs>
        <rect id="path-1" x="0" y="0" width="120" height="148"></rect>
    </defs>
    <g id="Page-1" stroke="none" stroke-width="1" fill="none" fill-rule="evenodd" sketch:type="MSPage">
        <g id="star-rating" sketch:type="MSArtboardGroup" transform="translate(-52.000000, -55.000000)">
            <g id="stars" sketch:type="MSLayerGroup" transform="translate(52.000000, 42.000000)">
                <path d="M140,63.0390625 L86.5429688,63.0390625 L70,13 L53.4570312,63.0390625 L0,63.0390625 L43.1347656,93.6640625 L27.4804688,143.019531 L70,114.240234 L112.519531,143.019531 L96.8652344,93.6640625 L140,63.0390625 Z" id="star" fill="#4A4A4A" sketch:type="MSShapeGroup"></path>
                <path d="M285,63.0390625 L231.542969,63.0390625 L215,13 L198.457031,63.0390625 L145,63.0390625 L188.134766,93.6640625 L172.480469,143.019531 L215,114.240234 L257.519531,143.019531 L241.865234,93.6640625 L285,63.0390625 Z" id="star-copy" fill="#4A4A4A" sketch:type="MSShapeGroup"></path>
                <path d="M430,63.0390625 L376.542969,63.0390625 L360,13 L343.457031,63.0390625 L290,63.0390625 L333.134766,93.6640625 L317.480469,143.019531 L360,114.240234 L402.519531,143.019531 L386.865234,93.6640625 L430,63.0390625 Z" id="star-copy-2" fill="#4A4A4A" sketch:type="MSShapeGroup"></path>
                <path d="M575,63.0390625 L521.542969,63.0390625 L505,13 L488.457031,63.0390625 L435,63.0390625 L478.134766,93.6640625 L462.480469,143.019531 L505,114.240234 L547.519531,143.019531 L531.865234,93.6640625 L575,63.0390625 Z" id="star-copy-3" fill="#4A4A4A" sketch:type="MSShapeGroup"></path>
                <path d="M720,63.0390625 L666.542969,63.0390625 L650,13 L633.457031,63.0390625 L580,63.0390625 L623.134766,93.6640625 L607.480469,143.019531 L650,114.240234 L692.519531,143.019531 L676.865234,93.6640625 L720,63.0390625 Z" id="star-hollow" fill-opacity="0.301970109" fill="#4A4A4A" sketch:type="MSShapeGroup"></path>
                <g id="star-copy-4" transform="translate(580.000000, 0.000000)">
                    <mask id="mask-2" sketch:name="Mask" fill="white">
                        <use xlink:href="#path-1"></use>
                    </mask>
                    <use id="Mask" sketch:type="MSShapeGroup" xlink:href="#path-1"></use>
                    <path d="M140,63.0390625 L86.5429688,63.0390625 L70,13 L53.4570312,63.0390625 L0,63.0390625 L43.1347656,93.6640625 L27.4804688,143.019531 L70,114.240234 L112.519531,143.019531 L96.8652344,93.6640625 L140,63.0390625 Z" fill="#4A4A4A" sketch:type="MSShapeGroup" mask="url(#mask-2)"></path>
                </g>
            </g>
        </g>
    </g>
</svg>