<svg viewBox="0 0 262 60" xmlns="http://www.w3.org/2000/svg" xmlns:svg="http://www.w3.org/2000/svg">
 <style type="text/css">.st0{fill:#CCCCCC;;}</style>
 <g>
  <path fill="white" class="st0" d="m38.13101,28.19572c0.10873,8.2 7.28521,10.9 7.39394,10.9c0,0.2 -1.08734,3.9 -3.8057,7.7c-2.28342,3.3 -4.56685,6.6 -8.37255,6.6c-3.58824,0.1 -4.89305,-2.1 -9.02496,-2.1c-4.24064,0 -5.54546,2.1 -9.02496,2.2c-3.58824,0.1 -6.3066,-3.5 -8.59002,-6.8c-4.67558,-6.7 -8.26382,-18.9 -3.4795,-27.2c2.39216,-4.1 6.6328,-6.7 11.30838,-6.8c3.58824,-0.1 6.85027,2.4 9.13369,2.4c2.17469,0 6.19786,-2.9 10.4385,-2.5c1.73975,0.1 6.85027,0.7 10.00357,5.4c-0.3262,0.1 -6.08913,3.4 -5.98039,10.2zm-15.11408,-16.3c-0.43494,-3.1 1.19608,-6.3 2.82709,-8.3c1.95722,-2.3 5.32799,-4 8.04635,-4.1c0.3262,3.2 -0.97861,6.3 -2.82709,8.7c-1.84849,2.2 -5.00178,4 -8.04635,3.7zm64.47951,40.7c0,-0.3 0.10873,-0.6 0.21747,-0.9l6.74153,-16c0.3262,-0.7 0.76114,-1.3 1.52228,-1.7c0.65241,-0.4 1.41355,-0.7 2.28342,-0.7c0.10873,0 0.21747,0 0.3262,0c0.76114,0 1.52228,0.2 2.17469,0.6c0.76114,0.4 1.30481,1 1.63102,1.8l6.74153,16c0.10873,0.3 0.21747,0.6 0.21747,0.9c0,0.6 -0.21747,1.2 -0.76114,1.7c-0.54367,0.5 -1.08734,0.7 -1.84849,0.7c-0.54367,0 -0.97861,-0.1 -1.41355,-0.4c-0.43494,-0.3 -0.76114,-0.6 -0.97861,-1.1l-0.86988,-2.3l-9.89483,0l-0.97861,2.3c-0.21747,0.5 -0.54367,0.8 -0.97861,1.1c-0.43494,0.3 -0.97861,0.4 -1.52228,0.4c-0.76114,0 -1.41355,-0.2 -1.84849,-0.7c-0.54367,-0.5 -0.76114,-1.1 -0.76114,-1.7zm7.28521,-5.4l7.28521,0l-3.58824,-9.2l-3.69697,9.2zm17.72371,11.7l0,-17.8c0,-0.6 0.21747,-1 0.65241,-1.4c0.43494,-0.4 0.97861,-0.6 1.63102,-0.6c0.54367,0 1.08734,0.2 1.52228,0.6s0.65241,0.9 0.65241,1.4l0,0.2c1.30481,-1.6 3.04456,-2.3 5.21925,-2.3c2.17469,0 4.02317,0.7 5.32799,2.2c1.41355,1.4 2.06595,3.4 2.06595,5.9c0,2.5 -0.65241,4.5 -2.06595,6c-1.41355,1.5 -3.1533,2.2 -5.32799,2.2c-2.06595,0 -3.8057,-0.8 -5.21925,-2.4l0,6.1c0,0.6 -0.21747,1 -0.65241,1.4c-0.43494,0.4 -0.97861,0.6 -1.63102,0.6c-0.65241,0 -1.08734,-0.2 -1.52228,-0.6s-0.65241,-1 -0.65241,-1.5zm4.45811,-9.1c0.3262,0.5 0.86988,0.9 1.63102,1.2c0.76114,0.3 1.41355,0.5 2.17469,0.5c1.30481,0 2.28342,-0.4 3.04456,-1.2c0.76114,-0.8 1.19608,-1.9 1.19608,-3.3c0,-1.3 -0.43494,-2.4 -1.19608,-3.2c-0.76114,-0.8 -1.84849,-1.2 -3.04456,-1.2c-0.76114,0 -1.41355,0.2 -2.17469,0.5c-0.76114,0.3 -1.30481,0.8 -1.63102,1.2l0,5.5zm15.76649,9.1l0,-17.8c0,-0.6 0.21747,-1 0.65241,-1.4c0.43494,-0.4 0.97861,-0.6 1.63102,-0.6c0.54367,0 1.08734,0.2 1.52228,0.6s0.65241,0.9 0.65241,1.4l0,0.2c1.30481,-1.6 3.04456,-2.3 5.21925,-2.3c2.17469,0 4.02317,0.7 5.32799,2.2s2.06595,3.4 2.06595,5.9c0,2.5 -0.65241,4.5 -2.06595,6s-3.1533,2.2 -5.32799,2.2c-2.06595,0 -3.8057,-0.8 -5.21925,-2.4l0,6.1c0,0.6 -0.21747,1 -0.65241,1.4c-0.43494,0.4 -0.97861,0.6 -1.63102,0.6c-0.65241,0 -1.08734,-0.2 -1.52228,-0.6s-0.65241,-1 -0.65241,-1.5zm4.45811,-9.1c0.3262,0.5 0.86988,0.9 1.63102,1.2c0.76114,0.3 1.41355,0.5 2.17469,0.5c1.30481,0 2.28342,-0.4 3.04456,-1.2c0.76114,-0.8 1.19608,-1.9 1.19608,-3.3c0,-1.3 -0.43494,-2.4 -1.19608,-3.2c-0.76114,-0.8 -1.84849,-1.2 -3.04456,-1.2c-0.76114,0 -1.41355,0.2 -2.17469,0.5c-0.76114,0.3 -1.30481,0.8 -1.63102,1.2l0,5.5zm23.92157,1.5c0,-0.6 0.21747,-1.1 0.65241,-1.5c0.43494,-0.4 0.97861,-0.6 1.63102,-0.6c0.54367,0 0.97861,0.1 1.30481,0.3c1.73975,1.1 3.69697,1.6 5.76292,1.6c1.30481,0 2.28342,-0.2 2.93583,-0.7s1.08734,-1 1.08734,-1.7c0,-0.4 -0.10873,-0.7 -0.43494,-1c-0.3262,-0.3 -0.76114,-0.5 -1.19608,-0.7c-0.54367,-0.2 -1.08734,-0.4 -1.73975,-0.5c-0.65241,-0.2 -1.41355,-0.3 -2.06595,-0.5s-1.41355,-0.4 -2.17469,-0.5c-0.76114,-0.2 -1.41355,-0.4 -2.06595,-0.8c-0.65241,-0.3 -1.30481,-0.7 -1.73975,-1.1c-0.54367,-0.4 -0.97861,-1 -1.19608,-1.7c-0.3262,-0.7 -0.43494,-1.4 -0.43494,-2.3c0,-1.8 0.76114,-3.4 2.39216,-4.6c1.63102,-1.2 3.69697,-1.9 6.41533,-1.9c1.52228,0 3.04456,0.2 4.67558,0.6c1.63102,0.4 2.71836,1 3.26203,1.8c0.3262,0.3 0.43494,0.7 0.43494,1.1c0,0.6 -0.21747,1.1 -0.76114,1.5c-0.54367,0.4 -1.08734,0.6 -1.73975,0.6c-0.43494,0 -0.86988,-0.1 -1.19608,-0.3c-1.52228,-0.8 -3.26203,-1.2 -5.11052,-1.2c-1.08734,0 -1.84849,0.2 -2.39216,0.6c-0.54367,0.4 -0.86988,0.9 -0.86988,1.5c0,0.4 0.21747,0.7 0.54367,1c0.43494,0.3 0.86988,0.5 1.52228,0.7s1.30481,0.3 2.17469,0.5s1.63102,0.4 2.39216,0.6c0.86988,0.2 1.63102,0.5 2.39216,0.8s1.52228,0.7 2.17469,1.2c0.65241,0.4 1.08734,1 1.52228,1.8c0.3262,0.7 0.54367,1.6 0.54367,2.5c0,2 -0.76114,3.7 -2.39216,5c-1.63102,1.3 -3.91444,1.9 -6.959,1.9c-1.84849,0 -3.58824,-0.3 -5.32799,-0.8c-1.73975,-0.5 -2.93583,-1.2 -3.4795,-2c-0.43494,-0.4 -0.54367,-0.8 -0.54367,-1.2zm19.02852,-10.2c0,-0.5 0.21747,-0.9 0.54367,-1.2c0.43494,-0.3 0.86988,-0.5 1.41355,-0.5l1.08734,0l0,-2.4c0,-0.6 0.21747,-1 0.65241,-1.4s0.97861,-0.6 1.63102,-0.6c0.65241,0 1.08734,0.2 1.52228,0.6s0.65241,0.9 0.65241,1.4l0,2.4l1.73975,0c0.54367,0 0.97861,0.2 1.30481,0.5c0.3262,0.4 0.54367,0.8 0.54367,1.3c0,0.5 -0.21747,0.9 -0.54367,1.2c-0.3262,0.3 -0.86988,0.5 -1.30481,0.5l-1.73975,0l0,7c0,0.6 0.10873,1 0.43494,1.3c0.3262,0.3 0.65241,0.4 1.08734,0.4l0.43494,0c0.65241,0 1.08734,0.2 1.41355,0.5c0.3262,0.3 0.54367,0.8 0.54367,1.3c0,0.6 -0.21747,1 -0.76114,1.4c-0.54367,0.3 -1.41355,0.5 -2.82709,0.5c-1.52228,0 -2.71836,-0.4 -3.58824,-1.1c-0.86988,-0.7 -1.19608,-1.8 -1.19608,-3.1l0,-8.1l-1.08734,0c-0.54367,0 -0.97861,-0.2 -1.41355,-0.5c-0.3262,-0.5 -0.54367,-0.9 -0.54367,-1.4zm12.83066,5.9c0,-1.5 0.3262,-2.8 1.08734,-4c0.65241,-1.2 1.73975,-2.2 3.04456,-2.9c1.30481,-0.7 2.93583,-1.1 4.67558,-1.1c1.84849,0 3.37077,0.4 4.78431,1.1c1.41355,0.7 2.39216,1.7 3.04456,2.9c0.65241,1.2 1.08734,2.6 1.08734,4c0,1.1 -0.21747,2.1 -0.65241,3.1s-0.97861,1.8 -1.73975,2.6c-0.76114,0.7 -1.63102,1.3 -2.82709,1.8s-2.39216,0.6 -3.69697,0.6c-1.73975,0 -3.37077,-0.4 -4.67558,-1.1c-1.41355,-0.7 -2.39216,-1.7 -3.04456,-3c-0.65241,-1.1 -1.08734,-2.5 -1.08734,-4zm4.56685,0c0,1.3 0.43494,2.3 1.19608,3.2c0.76114,0.9 1.84849,1.3 3.1533,1.3c1.30481,0 2.39216,-0.4 3.1533,-1.3c0.76114,-0.9 1.19608,-1.9 1.19608,-3.2c0,-1.3 -0.43494,-2.3 -1.19608,-3.2s-1.84849,-1.3 -3.1533,-1.3c-1.30481,0 -2.39216,0.4 -3.1533,1.3c-0.76114,0.9 -1.19608,2 -1.19608,3.2zm16.52763,6l0,-11.8c0,-0.6 0.21747,-1 0.65241,-1.4c0.43494,-0.4 0.97861,-0.6 1.63102,-0.6c0.54367,0 1.08734,0.2 1.52228,0.6s0.65241,0.9 0.65241,1.4l0,0.3c0.54367,-0.7 1.08734,-1.2 1.63102,-1.6s1.19608,-0.6 1.95722,-0.6c0.65241,0 1.08734,0.2 1.41355,0.5s0.54367,0.7 0.54367,1.2c0,0.6 -0.21747,1.1 -0.54367,1.4c-0.43494,0.4 -0.86988,0.6 -1.52228,0.7c-1.52228,0.2 -2.71836,0.7 -3.4795,1.6l0,8.4c0,0.6 -0.21747,1 -0.65241,1.4c-0.43494,0.4 -0.97861,0.6 -1.52228,0.6l-0.10873,0c-0.65241,0 -1.08734,-0.2 -1.52228,-0.6s-0.65241,-1 -0.65241,-1.5zm11.41711,-6c0,-1.5 0.3262,-2.8 1.08734,-4.1c0.76114,-1.2 1.73975,-2.2 3.1533,-2.9c1.30481,-0.7 2.82709,-1.1 4.45811,-1.1c1.84849,0 3.4795,0.5 4.89305,1.4c1.41355,0.9 2.39216,2.2 2.93583,3.8c0.3262,1 0.54367,1.8 0.54367,2.3c0,0.5 -0.21747,0.9 -0.65241,1.3c-0.43494,0.4 -0.86988,0.5 -1.41355,0.5l-10.32977,0c0.10873,1 0.65241,1.9 1.52228,2.6c0.86988,0.7 1.95722,1 3.37077,1c1.19608,0 2.28342,-0.3 3.26203,-0.8c0.3262,-0.1 0.54367,-0.2 0.86988,-0.2c0.43494,0 0.86988,0.2 1.30481,0.5c0.43494,0.3 0.54367,0.7 0.54367,1.2c0,0.4 -0.21747,0.8 -0.65241,1.2c-0.43494,0.3 -1.08734,0.6 -1.73975,0.8c-0.65241,0.2 -1.41355,0.3 -2.06595,0.4c-0.76114,0.1 -1.41355,0.1 -1.95722,0.1c-2.60963,0 -4.78431,-0.7 -6.41533,-2.2c-1.84849,-1.3 -2.71836,-3.3 -2.71836,-5.8zm4.56685,-1.4l8.26382,0c0,-0.4 -0.10873,-0.8 -0.3262,-1.2c-0.21747,-0.4 -0.43494,-0.7 -0.76114,-1.1c-0.3262,-0.3 -0.76114,-0.6 -1.30481,-0.8c-0.54367,-0.2 -1.19608,-0.3 -1.84849,-0.3c-0.65241,0 -1.19608,0.1 -1.73975,0.3c-0.54367,0.2 -0.97861,0.5 -1.30481,0.8c-0.3262,0.3 -0.54367,0.7 -0.76114,1.1c0,0.4 -0.21747,0.8 -0.21747,1.2z" id="svg_1"/>
  <text fill="#CCCCCC" stroke="#CCCCCC" stroke-width="0" x="163.40284" y="23.40755" id="svg_2" font-size="24" font-family="Monospace" text-anchor="middle" xml:space="preserve" font-weight="bold">Disponible</text>
 </g>
</svg>