<?xml version="1.0" encoding="utf-8"?>
<!-- Generator: Adobe Illustrator 19.1.0, SVG Export Plug-In . SVG Version: 6.00 Build 0)  -->
<svg version="1.1" id="Camada_1" xmlns="http://www.w3.org/2000/svg" xmlns:xlink="http://www.w3.org/1999/xlink" x="0px" y="0px"
	 viewBox="-517 370.7 243.8 61.3" style="enable-background:new -517 370.7 243.8 61.3;" xml:space="preserve">
<style type="text/css">
	.st0{fill:#CCCCCC;}
</style>
<path class="st0" d="M-482.7,399.4c0.1,8.2,6.7,10.9,6.8,10.9c0,0.2-1,3.9-3.5,7.7c-2.1,3.3-4.2,6.6-7.7,6.6
	c-3.3,0.1-4.5-2.1-8.3-2.1c-3.9,0-5.1,2.1-8.3,2.2c-3.3,0.1-5.8-3.5-7.9-6.8c-4.3-6.7-7.6-18.9-3.2-27.2c2.2-4.1,6.1-6.7,10.4-6.8
	c3.3-0.1,6.3,2.4,8.4,2.4c2,0,5.7-2.9,9.6-2.5c1.6,0.1,6.3,0.7,9.2,5.4C-477.5,389.3-482.8,392.6-482.7,399.4z M-496.6,383.1
	c-0.4-3.1,1.1-6.3,2.6-8.3c1.8-2.3,4.9-4,7.4-4.1c0.3,3.2-0.9,6.3-2.6,8.7C-490.9,381.6-493.8,383.4-496.6,383.1z M-437.5,392.2
	c0-0.3,0-0.5,0.1-0.7l5.1-13c0.2-0.6,0.6-1,1.1-1.4c0.5-0.4,1.1-0.5,1.7-0.5c0.1,0,0.2,0,0.2,0c0.6,0,1.1,0.1,1.7,0.5
	c0.6,0.4,1,0.9,1.3,1.5l5,13c0.1,0.3,0.1,0.5,0.1,0.7c0,0.5-0.2,1-0.6,1.4c-0.4,0.4-0.8,0.6-1.4,0.6c-0.4,0-0.7-0.1-1.1-0.3
	s-0.6-0.5-0.7-0.9l-0.7-1.9h-7.4l-0.7,1.9c-0.1,0.4-0.4,0.7-0.7,0.9s-0.7,0.3-1.1,0.3c-0.6,0-1-0.2-1.4-0.6
	S-437.5,392.7-437.5,392.2z M-432,387.8h5.4l-2.7-7.5L-432,387.8z M-420.4,382.9c0-0.4,0.2-0.8,0.5-1.1s0.7-0.5,1.2-0.5
	c0.3,0,0.6,0.1,0.9,0.3c0.3,0.2,0.5,0.4,0.6,0.7l2.9,7.9l2.9-7.8c0.1-0.3,0.3-0.6,0.6-0.7s0.6-0.3,0.9-0.3c0.5,0,0.9,0.2,1.2,0.5
	c0.3,0.3,0.5,0.7,0.5,1.1c0,0.2,0,0.4-0.1,0.6l-3.7,9.1c-0.2,0.5-0.5,0.9-0.9,1.1c-0.4,0.3-0.9,0.4-1.4,0.4h-0.1
	c-0.5,0-1-0.1-1.4-0.4s-0.7-0.7-0.9-1.1l-3.7-9.1C-420.3,383.3-420.4,383.1-420.4,382.9z M-406.8,390.2c0-0.6,0.1-1.1,0.3-1.5
	c0.2-0.5,0.4-0.8,0.7-1.2c0.3-0.3,0.6-0.6,1-0.8s0.8-0.4,1.2-0.5s0.8-0.1,1.2-0.1c0.8,0,1.6,0.1,2.3,0.4c0.7,0.3,1.3,0.6,1.7,1.1
	v-1.7c0-0.6-0.3-1.1-0.8-1.5s-1.2-0.6-2-0.6c-1,0-2,0.3-2.8,0.8c-0.2,0.1-0.4,0.2-0.6,0.2c-0.3,0-0.6-0.1-0.9-0.4s-0.4-0.5-0.4-0.9
	c0-0.2,0.1-0.4,0.2-0.6c0.3-0.6,1-1,2.1-1.3s2-0.5,2.9-0.5c0.8,0,1.4,0.1,2.1,0.2s1.2,0.4,1.7,0.8s0.9,0.9,1.2,1.5s0.4,1.4,0.4,2.3
	v6.6c0,0.5-0.2,0.8-0.5,1.2c-0.3,0.3-0.7,0.5-1.1,0.5h-0.3c-0.1,0-0.2,0-0.3-0.1c-0.1,0-0.3-0.1-0.5-0.2c-0.2-0.1-0.3-0.2-0.4-0.4
	s-0.2-0.5-0.2-0.7c-0.4,0.5-1,0.9-1.7,1.2s-1.5,0.4-2.3,0.4c-0.5,0-1-0.1-1.5-0.3c-0.5-0.2-1-0.4-1.4-0.8c-0.4-0.3-0.8-0.8-1-1.3
	C-406.6,391.4-406.8,390.8-406.8,390.2z M-403.5,390.2c0,0.6,0.2,1,0.7,1.3c0.5,0.3,1,0.5,1.7,0.5c0.6,0,1.1-0.1,1.5-0.3
	s0.9-0.5,1.1-0.8v-1.6c-0.3-0.4-0.6-0.6-1.1-0.8s-1-0.3-1.5-0.3c-0.7,0-1.2,0.2-1.7,0.5C-403.2,389.2-403.5,389.6-403.5,390.2z
	 M-391.6,379.5c-0.4-0.4-0.6-0.8-0.6-1.4s0.2-1,0.6-1.4c0.4-0.4,0.9-0.6,1.4-0.6c0.5,0,1,0.2,1.4,0.6s0.6,0.8,0.6,1.4
	s-0.2,1-0.6,1.4c-0.4,0.4-0.9,0.6-1.4,0.6C-390.7,380.1-391.2,379.9-391.6,379.5z M-391.8,392.5v-9.6c0-0.4,0.2-0.8,0.5-1.1
	c0.3-0.3,0.7-0.5,1.2-0.5c0.4,0,0.8,0.2,1.1,0.5c0.3,0.3,0.5,0.7,0.5,1.1v9.6c0,0.5-0.2,0.8-0.5,1.2c-0.3,0.3-0.7,0.5-1.2,0.5
	c-0.5,0-0.8-0.2-1.2-0.5C-391.7,393.4-391.8,393-391.8,392.5z M-385.3,392.5v-14.4c0-0.4,0.2-0.8,0.5-1.1c0.3-0.3,0.7-0.5,1.2-0.5
	c0.4,0,0.8,0.2,1.1,0.5s0.5,0.7,0.5,1.1v14.4c0,0.5-0.2,0.8-0.5,1.2c-0.3,0.3-0.7,0.5-1.2,0.5c-0.5,0-0.8-0.2-1.2-0.5
	C-385.1,393.4-385.3,393-385.3,392.5z M-379.5,390.2c0-0.6,0.1-1.1,0.3-1.5c0.2-0.5,0.4-0.8,0.7-1.2c0.3-0.3,0.6-0.6,1-0.8
	s0.8-0.4,1.2-0.5s0.8-0.1,1.2-0.1c0.8,0,1.6,0.1,2.3,0.4c0.7,0.3,1.3,0.6,1.7,1.1v-1.7c0-0.6-0.3-1.1-0.8-1.5s-1.2-0.6-2-0.6
	c-1,0-2,0.3-2.8,0.8c-0.2,0.1-0.4,0.2-0.6,0.2c-0.3,0-0.6-0.1-0.9-0.4s-0.4-0.5-0.4-0.9c0-0.2,0.1-0.4,0.2-0.6c0.3-0.6,1-1,2.1-1.3
	c1.1-0.3,2-0.5,2.9-0.5c0.8,0,1.4,0.1,2.1,0.2c0.6,0.2,1.2,0.4,1.7,0.8s0.9,0.9,1.2,1.5c0.3,0.6,0.4,1.4,0.4,2.3v6.6
	c0,0.5-0.2,0.8-0.5,1.2c-0.3,0.3-0.7,0.5-1.1,0.5h-0.3c-0.1,0-0.2,0-0.3-0.1c-0.1,0-0.3-0.1-0.5-0.2c-0.2-0.1-0.3-0.2-0.4-0.4
	s-0.2-0.5-0.2-0.7c-0.4,0.5-1,0.9-1.7,1.2c-0.7,0.3-1.5,0.4-2.3,0.4c-0.5,0-1-0.1-1.5-0.3c-0.5-0.2-1-0.4-1.4-0.8
	c-0.4-0.3-0.8-0.8-1-1.3C-379.4,391.4-379.5,390.8-379.5,390.2z M-376.2,390.2c0,0.6,0.2,1,0.7,1.3c0.5,0.3,1,0.5,1.7,0.5
	c0.6,0,1.1-0.1,1.5-0.3s0.9-0.5,1.1-0.8v-1.6c-0.3-0.4-0.6-0.6-1.1-0.8s-1-0.3-1.5-0.3c-0.7,0-1.2,0.2-1.7,0.5
	C-376,389.2-376.2,389.6-376.2,390.2z M-364.6,392.5v-14.4c0-0.4,0.2-0.8,0.5-1.1c0.3-0.3,0.7-0.5,1.2-0.5c0.4,0,0.8,0.2,1.1,0.5
	s0.5,0.7,0.5,1.1v4.9c0.5-0.6,1.1-1.1,1.7-1.4c0.7-0.3,1.4-0.5,2.1-0.5c1.6,0,3,0.6,4,1.8c1,1.2,1.6,2.8,1.6,4.8
	c0,2-0.5,3.6-1.6,4.8s-2.4,1.8-4,1.8c-1.6,0-2.8-0.6-3.9-1.9v0.1c0,0.5-0.2,0.8-0.5,1.2c-0.3,0.3-0.7,0.5-1.2,0.5
	c-0.5,0-0.8-0.2-1.2-0.5C-364.4,393.4-364.6,393-364.6,392.5z M-361.3,390c0.3,0.4,0.7,0.7,1.2,1c0.5,0.3,1.1,0.4,1.6,0.4
	c1,0,1.7-0.3,2.3-1s0.9-1.5,0.9-2.6s-0.3-2-0.9-2.6c-0.6-0.7-1.4-1-2.3-1c-0.5,0-1.1,0.1-1.6,0.4c-0.5,0.3-0.9,0.6-1.2,1V390z
	 M-349.3,392.5v-14.4c0-0.4,0.2-0.8,0.5-1.1c0.3-0.3,0.7-0.5,1.2-0.5c0.4,0,0.8,0.2,1.1,0.5s0.5,0.7,0.5,1.1v14.4
	c0,0.5-0.2,0.8-0.5,1.2c-0.3,0.3-0.7,0.5-1.2,0.5c-0.5,0-0.8-0.2-1.2-0.5C-349.2,393.4-349.3,393-349.3,392.5z M-343.6,387.7
	c0-1.2,0.3-2.3,0.8-3.3s1.3-1.8,2.3-2.4c1-0.6,2.1-0.9,3.4-0.9c1.4,0,2.6,0.4,3.6,1.1c1,0.8,1.8,1.8,2.2,3.1
	c0.2,0.8,0.4,1.4,0.4,1.9c0,0.4-0.2,0.8-0.5,1.1s-0.7,0.4-1.1,0.4h-7.7c0.1,0.8,0.5,1.5,1.1,2.1c0.6,0.6,1.5,0.8,2.5,0.8
	c0.9,0,1.7-0.2,2.4-0.6c0.2-0.1,0.4-0.2,0.6-0.2c0.4,0,0.7,0.1,1,0.4c0.3,0.3,0.4,0.6,0.4,0.9c0,0.3-0.2,0.7-0.5,0.9
	c-0.3,0.3-0.8,0.5-1.3,0.7c-0.5,0.2-1.1,0.3-1.6,0.4c-0.5,0.1-1,0.1-1.5,0.1c-1.9,0-3.5-0.6-4.8-1.8
	C-342.9,391.3-343.6,389.7-343.6,387.7z M-340.2,386.5h6.2c0-0.3-0.1-0.6-0.2-0.9c-0.1-0.3-0.3-0.6-0.5-0.9c-0.2-0.3-0.6-0.5-1-0.7
	c-0.4-0.2-0.9-0.3-1.4-0.3c-0.5,0-0.9,0.1-1.3,0.3s-0.7,0.4-0.9,0.7c-0.2,0.3-0.4,0.6-0.6,0.9C-340,385.9-340.1,386.2-340.2,386.5z
	 M-321.7,392.5v-9.6c0-0.4,0.2-0.8,0.5-1.1c0.3-0.3,0.7-0.5,1.2-0.5c0.4,0,0.8,0.2,1.1,0.5c0.3,0.3,0.5,0.7,0.5,1.1v0.2
	c0.5-0.5,1.1-1,1.8-1.4c0.8-0.4,1.6-0.6,2.6-0.6c1.3,0,2.4,0.4,3.1,1.1c0.7,0.7,1,1.7,1,3v7.4c0,0.5-0.2,0.8-0.5,1.2
	c-0.3,0.3-0.7,0.5-1.2,0.5c-0.5,0-0.8-0.2-1.2-0.5c-0.3-0.3-0.5-0.7-0.5-1.2v-6.1c0-0.8-0.2-1.4-0.6-1.8s-1-0.5-1.7-0.5
	c-0.6,0-1.2,0.1-1.7,0.4c-0.5,0.3-0.9,0.6-1.2,1v7c0,0.5-0.2,0.8-0.5,1.2c-0.3,0.3-0.7,0.5-1.2,0.5c-0.5,0-0.8-0.2-1.2-0.5
	C-321.6,393.4-321.7,393-321.7,392.5z M-307.5,387.7c0-1.2,0.3-2.3,0.8-3.3c0.5-1,1.3-1.8,2.3-2.4c1-0.6,2.2-0.9,3.5-0.9
	c1.3,0,2.5,0.3,3.5,0.9c1,0.6,1.8,1.4,2.3,2.4c0.5,1,0.8,2.1,0.8,3.3c0,0.9-0.2,1.7-0.5,2.5c-0.3,0.8-0.7,1.5-1.3,2.1
	c-0.6,0.6-1.3,1.1-2.1,1.4c-0.8,0.4-1.8,0.5-2.8,0.5c-1.3,0-2.5-0.3-3.5-0.9c-1-0.6-1.8-1.4-2.3-2.4
	C-307.2,390-307.5,388.9-307.5,387.7z M-304.1,387.7c0,1,0.3,1.9,0.9,2.6c0.6,0.7,1.4,1.1,2.3,1.1s1.8-0.4,2.4-1.1
	c0.6-0.7,0.9-1.6,0.9-2.6c0-1-0.3-1.9-0.9-2.6c-0.6-0.7-1.4-1-2.4-1s-1.8,0.3-2.3,1C-303.8,385.8-304.1,386.7-304.1,387.7z
	 M-292.9,382.9c0-0.4,0.2-0.8,0.5-1.1c0.3-0.3,0.7-0.5,1.2-0.5c0.4,0,0.7,0.1,1,0.3c0.3,0.2,0.5,0.5,0.6,0.8l2.1,7.4l2.4-7.3
	c0.1-0.4,0.4-0.7,0.7-1c0.4-0.2,0.8-0.4,1.2-0.4c0.4,0,0.8,0.1,1.1,0.4c0.3,0.2,0.6,0.6,0.7,0.9l2.4,7.3l2-7.4
	c0.1-0.4,0.3-0.6,0.6-0.9c0.3-0.2,0.6-0.3,1-0.3c0.5,0,0.9,0.2,1.2,0.5c0.3,0.3,0.5,0.7,0.5,1.1c0,0.2,0,0.3-0.1,0.5l-2.8,9.2
	c-0.1,0.5-0.4,0.8-0.8,1.1c-0.4,0.3-0.9,0.5-1.3,0.5h-0.1c-0.5,0-1-0.1-1.4-0.4c-0.4-0.3-0.7-0.7-0.8-1.2l-2.2-7.1l-2.2,7.1
	c-0.1,0.5-0.4,0.9-0.8,1.2s-0.9,0.5-1.3,0.5h-0.1c-0.5,0-0.9-0.2-1.4-0.5c-0.4-0.3-0.7-0.7-0.8-1.2l-2.8-9.2
	C-292.9,383.2-292.9,383-292.9,382.9z M-437.3,423.8c0-0.3,0.1-0.6,0.2-0.9l6.2-16c0.3-0.7,0.7-1.3,1.4-1.7c0.6-0.4,1.3-0.7,2.1-0.7
	c0.1,0,0.2,0,0.3,0c0.7,0,1.4,0.2,2,0.6c0.7,0.4,1.2,1,1.5,1.8l6.2,16c0.1,0.3,0.2,0.6,0.2,0.9c0,0.6-0.2,1.2-0.7,1.7
	c-0.5,0.5-1,0.7-1.7,0.7c-0.5,0-0.9-0.1-1.3-0.4c-0.4-0.3-0.7-0.6-0.9-1.1l-0.8-2.3h-9.1l-0.9,2.3c-0.2,0.5-0.5,0.8-0.9,1.1
	c-0.4,0.3-0.9,0.4-1.4,0.4c-0.7,0-1.3-0.2-1.7-0.7C-437.1,425-437.3,424.4-437.3,423.8z M-430.6,418.4h6.7l-3.3-9.2L-430.6,418.4z
	 M-414.3,430.1v-17.8c0-0.6,0.2-1,0.6-1.4c0.4-0.4,0.9-0.6,1.5-0.6c0.5,0,1,0.2,1.4,0.6s0.6,0.9,0.6,1.4v0.2
	c1.2-1.6,2.8-2.3,4.8-2.3c2,0,3.7,0.7,4.9,2.2c1.3,1.4,1.9,3.4,1.9,5.9c0,2.5-0.6,4.5-1.9,6c-1.3,1.5-2.9,2.2-4.9,2.2
	c-1.9,0-3.5-0.8-4.8-2.4v6.1c0,0.6-0.2,1-0.6,1.4c-0.4,0.4-0.9,0.6-1.5,0.6c-0.6,0-1-0.2-1.4-0.6S-414.3,430.6-414.3,430.1z
	 M-410.2,421c0.3,0.5,0.8,0.9,1.5,1.2c0.7,0.3,1.3,0.5,2,0.5c1.2,0,2.1-0.4,2.8-1.2c0.7-0.8,1.1-1.9,1.1-3.3c0-1.3-0.4-2.4-1.1-3.2
	c-0.7-0.8-1.7-1.2-2.8-1.2c-0.7,0-1.3,0.2-2,0.5c-0.7,0.3-1.2,0.8-1.5,1.2V421z M-395.7,430.1v-17.8c0-0.6,0.2-1,0.6-1.4
	c0.4-0.4,0.9-0.6,1.5-0.6c0.5,0,1,0.2,1.4,0.6s0.6,0.9,0.6,1.4v0.2c1.2-1.6,2.8-2.3,4.8-2.3c2,0,3.7,0.7,4.9,2.2s1.9,3.4,1.9,5.9
	c0,2.5-0.6,4.5-1.9,6s-2.9,2.2-4.9,2.2c-1.9,0-3.5-0.8-4.8-2.4v6.1c0,0.6-0.2,1-0.6,1.4c-0.4,0.4-0.9,0.6-1.5,0.6
	c-0.6,0-1-0.2-1.4-0.6S-395.7,430.6-395.7,430.1z M-391.6,421c0.3,0.5,0.8,0.9,1.5,1.2c0.7,0.3,1.3,0.5,2,0.5c1.2,0,2.1-0.4,2.8-1.2
	c0.7-0.8,1.1-1.9,1.1-3.3c0-1.3-0.4-2.4-1.1-3.2c-0.7-0.8-1.7-1.2-2.8-1.2c-0.7,0-1.3,0.2-2,0.5c-0.7,0.3-1.2,0.8-1.5,1.2V421z
	 M-369.6,422.5c0-0.6,0.2-1.1,0.6-1.5c0.4-0.4,0.9-0.6,1.5-0.6c0.5,0,0.9,0.1,1.2,0.3c1.6,1.1,3.4,1.6,5.3,1.6
	c1.2,0,2.1-0.2,2.7-0.7s1-1,1-1.7c0-0.4-0.1-0.7-0.4-1c-0.3-0.3-0.7-0.5-1.1-0.7c-0.5-0.2-1-0.4-1.6-0.5c-0.6-0.2-1.3-0.3-1.9-0.5
	s-1.3-0.4-2-0.5c-0.7-0.2-1.3-0.4-1.9-0.8c-0.6-0.3-1.2-0.7-1.6-1.1c-0.5-0.4-0.9-1-1.1-1.7c-0.3-0.7-0.4-1.4-0.4-2.3
	c0-1.8,0.7-3.4,2.2-4.6c1.5-1.2,3.4-1.9,5.9-1.9c1.4,0,2.8,0.2,4.3,0.6c1.5,0.4,2.5,1,3,1.8c0.3,0.3,0.4,0.7,0.4,1.1
	c0,0.6-0.2,1.1-0.7,1.5c-0.5,0.4-1,0.6-1.6,0.6c-0.4,0-0.8-0.1-1.1-0.3c-1.4-0.8-3-1.2-4.7-1.2c-1,0-1.7,0.2-2.2,0.6
	c-0.5,0.4-0.8,0.9-0.8,1.5c0,0.4,0.2,0.7,0.5,1c0.4,0.3,0.8,0.5,1.4,0.7s1.2,0.3,2,0.5s1.5,0.4,2.2,0.6c0.8,0.2,1.5,0.5,2.2,0.8
	s1.4,0.7,2,1.2c0.6,0.4,1,1,1.4,1.8c0.3,0.7,0.5,1.6,0.5,2.5c0,2-0.7,3.7-2.2,5c-1.5,1.3-3.6,1.9-6.4,1.9c-1.7,0-3.3-0.3-4.9-0.8
	c-1.6-0.5-2.7-1.2-3.2-2C-369.5,423.3-369.6,422.9-369.6,422.5z M-352.1,412.3c0-0.5,0.2-0.9,0.5-1.2c0.4-0.3,0.8-0.5,1.3-0.5h1
	v-2.4c0-0.6,0.2-1,0.6-1.4s0.9-0.6,1.5-0.6c0.6,0,1,0.2,1.4,0.6s0.6,0.9,0.6,1.4v2.4h1.6c0.5,0,0.9,0.2,1.2,0.5
	c0.3,0.4,0.5,0.8,0.5,1.3c0,0.5-0.2,0.9-0.5,1.2c-0.3,0.3-0.8,0.5-1.2,0.5h-1.6v7c0,0.6,0.1,1,0.4,1.3c0.3,0.3,0.6,0.4,1,0.4h0.4
	c0.6,0,1,0.2,1.3,0.5c0.3,0.3,0.5,0.8,0.5,1.3c0,0.6-0.2,1-0.7,1.4c-0.5,0.3-1.3,0.5-2.6,0.5c-1.4,0-2.5-0.4-3.3-1.1
	c-0.8-0.7-1.1-1.8-1.1-3.1v-8.1h-1c-0.5,0-0.9-0.2-1.3-0.5C-351.9,413.2-352.1,412.8-352.1,412.3z M-340.3,418.2c0-1.5,0.3-2.8,1-4
	c0.6-1.2,1.6-2.2,2.8-2.9c1.2-0.7,2.7-1.1,4.3-1.1c1.7,0,3.1,0.4,4.4,1.1c1.3,0.7,2.2,1.7,2.8,2.9c0.6,1.2,1,2.6,1,4
	c0,1.1-0.2,2.1-0.6,3.1s-0.9,1.8-1.6,2.6c-0.7,0.7-1.5,1.3-2.6,1.8s-2.2,0.6-3.4,0.6c-1.6,0-3.1-0.4-4.3-1.1c-1.3-0.7-2.2-1.7-2.8-3
	C-339.9,421.1-340.3,419.7-340.3,418.2z M-336.1,418.2c0,1.3,0.4,2.3,1.1,3.2c0.7,0.9,1.7,1.3,2.9,1.3c1.2,0,2.2-0.4,2.9-1.3
	c0.7-0.9,1.1-1.9,1.1-3.2c0-1.3-0.4-2.3-1.1-3.2s-1.7-1.3-2.9-1.3c-1.2,0-2.2,0.4-2.9,1.3C-335.7,415.9-336.1,417-336.1,418.2z
	 M-320.9,424.2v-11.8c0-0.6,0.2-1,0.6-1.4c0.4-0.4,0.9-0.6,1.5-0.6c0.5,0,1,0.2,1.4,0.6s0.6,0.9,0.6,1.4v0.3c0.5-0.7,1-1.2,1.5-1.6
	s1.1-0.6,1.8-0.6c0.6,0,1,0.2,1.3,0.5s0.5,0.7,0.5,1.2c0,0.6-0.2,1.1-0.5,1.4c-0.4,0.4-0.8,0.6-1.4,0.7c-1.4,0.2-2.5,0.7-3.2,1.6
	v8.4c0,0.6-0.2,1-0.6,1.4c-0.4,0.4-0.9,0.6-1.4,0.6h-0.1c-0.6,0-1-0.2-1.4-0.6S-320.9,424.7-320.9,424.2z M-310.4,418.2
	c0-1.5,0.3-2.8,1-4.1c0.7-1.2,1.6-2.2,2.9-2.9c1.2-0.7,2.6-1.1,4.1-1.1c1.7,0,3.2,0.5,4.5,1.4c1.3,0.9,2.2,2.2,2.7,3.8
	c0.3,1,0.5,1.8,0.5,2.3c0,0.5-0.2,0.9-0.6,1.3c-0.4,0.4-0.8,0.5-1.3,0.5h-9.5c0.1,1,0.6,1.9,1.4,2.6c0.8,0.7,1.8,1,3.1,1
	c1.1,0,2.1-0.3,3-0.8c0.3-0.1,0.5-0.2,0.8-0.2c0.4,0,0.8,0.2,1.2,0.5c0.4,0.3,0.5,0.7,0.5,1.2c0,0.4-0.2,0.8-0.6,1.2
	c-0.4,0.3-1,0.6-1.6,0.8c-0.6,0.2-1.3,0.3-1.9,0.4c-0.7,0.1-1.3,0.1-1.8,0.1c-2.4,0-4.4-0.7-5.9-2.2
	C-309.6,422.7-310.4,420.7-310.4,418.2z M-306.2,416.8h7.6c0-0.4-0.1-0.8-0.3-1.2c-0.2-0.4-0.4-0.7-0.7-1.1
	c-0.3-0.3-0.7-0.6-1.2-0.8c-0.5-0.2-1.1-0.3-1.7-0.3c-0.6,0-1.1,0.1-1.6,0.3c-0.5,0.2-0.9,0.5-1.2,0.8c-0.3,0.3-0.5,0.7-0.7,1.1
	C-306,416-306.2,416.4-306.2,416.8z"/>
</svg>
