<?xml version="1.0" encoding="UTF-8" standalone="no"?>
<svg width="262px" height="60px" viewBox="0 0 262 60" version="1.1" xmlns="http://www.w3.org/2000/svg" xmlns:xlink="http://www.w3.org/1999/xlink">
    <style type="text/css">
        .st0{fill:#CCCCCC;}
    </style>
    <text font-style="normal" font-weight="bold" xml:space="preserve" text-anchor="middle" font-family="Monospace" font-size="24" id="svg_4" y="23.67188" x="172.53124" stroke-linecap="null" stroke-linejoin="null" stroke-dasharray="null" stroke-width="0" fill="#CCCCCC">Disponible</text>
    <path class="st0" d="M89.1,41.9 C89.1,39.7 89.6,37.8 90.6,36.1 C91.6,34.4 93,33.1 94.7,32.2 C96.4,31.3 98.3,30.9 100.4,30.9 C103.5,30.9 106.1,31.9 108,34 C108.4,34.4 108.5,34.9 108.5,35.4 C108.5,36 108.3,36.4 107.9,36.8 C107.5,37.2 107,37.4 106.4,37.4 C105.8,37.4 105.3,37.2 104.9,36.8 C103.6,35.6 102.1,34.9 100.5,34.9 C98.6,34.9 97,35.6 95.7,36.9 C94.4,38.2 93.8,39.9 93.8,41.9 C93.8,43.9 94.4,45.6 95.7,46.9 C97,48.2 98.6,48.9 100.5,48.9 C101.4,48.9 102.2,48.7 103.1,48.4 C104,48.1 104.6,47.7 105.1,47.3 L105.1,44.7 L101.2,44.7 C100.6,44.7 100.2,44.5 99.8,44.1 C99.4,43.7 99.2,43.2 99.2,42.7 C99.2,42.1 99.4,41.7 99.8,41.3 C100.2,40.9 100.6,40.7 101.2,40.7 L107,40.7 C107.7,40.7 108.3,41 108.8,41.5 C109.3,42 109.6,42.6 109.6,43.3 L109.6,46.9 C109.6,47.7 109.4,48.4 109.1,49 C108.7,49.7 108.3,50.2 107.7,50.7 C107.1,51.2 106.4,51.6 105.6,51.9 C104.8,52.2 104,52.5 103.1,52.7 C102.2,52.9 101.4,52.9 100.5,52.9 C98.9,52.9 97.5,52.6 96.1,52.1 C94.7,51.6 93.5,50.8 92.5,49.9 C91.5,49 90.7,47.8 90.1,46.4 C89.4,45.1 89.1,43.5 89.1,41.9 L89.1,41.9 Z M112.1,44.8 C112.1,43.3 112.4,42 113.1,40.8 C113.7,39.6 114.7,38.6 115.9,37.9 C117.2,37.2 118.6,36.8 120.2,36.8 C121.9,36.8 123.3,37.2 124.6,37.9 C125.9,38.6 126.8,39.6 127.4,40.8 C128,42 128.4,43.4 128.4,44.8 C128.4,45.9 128.2,46.9 127.8,47.9 C127.4,48.9 126.9,49.7 126.2,50.5 C125.5,51.2 124.7,51.8 123.6,52.3 C122.6,52.7 121.4,52.9 120.2,52.9 C118.6,52.9 117.1,52.5 115.9,51.8 C114.6,51.1 113.7,50.1 113.1,48.8 C112.4,47.7 112.1,46.3 112.1,44.8 L112.1,44.8 Z M116.2,44.8 C116.2,46.1 116.6,47.1 117.3,48 C118,48.9 119,49.3 120.2,49.3 C121.4,49.3 122.4,48.9 123.1,48 C123.8,47.1 124.2,46.1 124.2,44.8 C124.2,43.5 123.8,42.5 123.1,41.6 C122.4,40.7 121.4,40.3 120.2,40.3 C119,40.3 118,40.7 117.3,41.6 C116.6,42.5 116.2,43.6 116.2,44.8 L116.2,44.8 Z M130.4,44.8 C130.4,43.3 130.7,42 131.4,40.8 C132,39.6 133,38.6 134.2,37.9 C135.5,37.2 136.9,36.8 138.5,36.8 C140.2,36.8 141.6,37.2 142.9,37.9 C144.2,38.6 145.1,39.6 145.7,40.8 C146.3,42 146.7,43.4 146.7,44.8 C146.7,45.9 146.5,46.9 146.1,47.9 C145.7,48.9 145.2,49.7 144.5,50.5 C143.8,51.2 143,51.8 141.9,52.3 C140.9,52.7 139.7,52.9 138.5,52.9 C136.9,52.9 135.4,52.5 134.2,51.8 C132.9,51.1 132,50.1 131.4,48.8 C130.7,47.7 130.4,46.3 130.4,44.8 L130.4,44.8 Z M134.6,44.8 C134.6,46.1 135,47.1 135.7,48 C136.4,48.9 137.4,49.3 138.6,49.3 C139.8,49.3 140.8,48.9 141.5,48 C142.2,47.1 142.6,46.1 142.6,44.8 C142.6,43.5 142.2,42.5 141.5,41.6 C140.8,40.7 139.8,40.3 138.6,40.3 C137.4,40.3 136.4,40.7 135.7,41.6 C135,42.5 134.6,43.6 134.6,44.8 L134.6,44.8 Z M148.8,44.6 C148.8,42.1 149.4,40.2 150.7,38.8 C152,37.4 153.6,36.7 155.6,36.7 C157.5,36.7 159.1,37.5 160.4,39.1 L160.4,38.9 C160.4,38.3 160.6,37.9 161,37.5 C161.4,37.1 161.9,36.9 162.5,36.9 C163.1,36.9 163.5,37.1 163.9,37.5 C164.3,37.9 164.5,38.4 164.5,38.9 L164.5,51.5 C164.5,52.6 164.3,53.6 164,54.5 C163.7,55.4 163.2,56.1 162.7,56.6 C162.2,57.1 161.5,57.6 160.8,57.9 C160.1,58.2 159.3,58.5 158.6,58.6 C157.9,58.7 157.1,58.8 156.3,58.8 C155.1,58.8 153.9,58.6 152.7,58.3 C151.5,58 150.7,57.5 150.3,56.9 C150.1,56.6 150,56.3 150,56 C150,55.5 150.2,55.1 150.5,54.8 C150.8,54.5 151.2,54.3 151.7,54.3 C152,54.3 152.3,54.4 152.6,54.5 C153.6,55.1 154.9,55.5 156.3,55.5 C156.8,55.5 157.3,55.4 157.8,55.3 C158.3,55.2 158.7,55 159.1,54.7 C159.5,54.4 159.9,54 160.1,53.5 C160.3,53 160.5,52.3 160.5,51.6 L160.5,50 C159.2,51.6 157.6,52.4 155.7,52.4 C153.7,52.4 152.1,51.7 150.8,50.3 C149.5,48.9 148.8,47.1 148.8,44.6 L148.8,44.6 Z M154,41.5 C153.3,42.3 152.9,43.3 152.9,44.6 C152.9,45.9 153.3,46.9 154,47.7 C154.7,48.5 155.7,48.8 156.8,48.8 C157.5,48.8 158.1,48.6 158.8,48.3 C159.5,48 160,47.5 160.3,47.1 L160.3,42.1 C160,41.6 159.5,41.2 158.8,40.8 C158.1,40.4 157.5,40.3 156.8,40.3 C155.7,40.3 154.8,40.7 154,41.5 L154,41.5 Z M168.5,50.7 L168.5,33 C168.5,32.4 168.7,32 169.1,31.6 C169.5,31.2 170,31 170.6,31 C171.1,31 171.6,31.2 172,31.6 C172.4,32 172.6,32.5 172.6,33 L172.6,50.7 C172.6,51.3 172.4,51.7 172,52.1 C171.6,52.5 171.1,52.7 170.5,52.7 C169.9,52.7 169.5,52.5 169.1,52.1 C168.7,51.7 168.5,51.3 168.5,50.7 L168.5,50.7 Z M175.6,44.8 C175.6,43.3 175.9,42 176.6,40.7 C177.3,39.5 178.2,38.5 179.5,37.8 C180.7,37.1 182.1,36.7 183.6,36.7 C185.3,36.7 186.8,37.2 188.1,38.1 C189.4,39 190.3,40.3 190.8,41.9 C191.1,42.9 191.3,43.7 191.3,44.2 C191.3,44.7 191.1,45.1 190.7,45.5 C190.3,45.9 189.9,46 189.4,46 L179.9,46 C180,47 180.5,47.9 181.3,48.6 C182.1,49.3 183.1,49.6 184.4,49.6 C185.5,49.6 186.5,49.3 187.4,48.8 C187.7,48.7 187.9,48.6 188.2,48.6 C188.6,48.6 189,48.8 189.4,49.1 C189.8,49.4 189.9,49.8 189.9,50.3 C189.9,50.7 189.7,51.1 189.3,51.5 C188.9,51.8 188.3,52.1 187.7,52.3 C187.1,52.5 186.4,52.6 185.8,52.7 C185.1,52.8 184.5,52.8 184,52.8 C181.6,52.8 179.6,52.1 178.1,50.6 C176.4,49.2 175.6,47.2 175.6,44.8 L175.6,44.8 Z M179.8,43.4 L187.4,43.4 C187.4,43 187.3,42.6 187.1,42.2 C186.9,41.8 186.7,41.5 186.4,41.1 C186.1,40.8 185.7,40.5 185.2,40.3 C184.7,40.1 184.1,40 183.5,40 C182.9,40 182.4,40.1 181.9,40.3 C181.4,40.5 181,40.8 180.7,41.1 C180.4,41.4 180.2,41.8 180,42.2 C179.9,42.6 179.8,43 179.8,43.4 L179.8,43.4 Z M202.5,50.5 L202.5,33.8 C202.5,33.1 202.8,32.5 203.3,32 C203.8,31.5 204.4,31.2 205.1,31.2 L212.5,31.2 C213.6,31.2 214.6,31.4 215.6,31.7 C216.5,32.1 217.3,32.6 217.9,33.2 C218.5,33.8 218.9,34.6 219.3,35.4 C219.7,36.2 219.8,37.1 219.8,38.1 C219.8,39 219.6,39.9 219.3,40.7 C219,41.5 218.5,42.3 217.9,42.9 C217.3,43.5 216.6,44 215.6,44.4 C214.7,44.8 213.7,45 212.5,45 L207.1,45 L207.1,50.5 C207.1,51.1 206.9,51.6 206.4,52.1 C206,52.5 205.4,52.8 204.8,52.8 C204.2,52.8 203.7,52.6 203.2,52.1 C202.8,51.6 202.5,51.1 202.5,50.5 L202.5,50.5 Z M207.1,41 L211.9,41 C212.8,41 213.6,40.7 214.2,40.2 C214.8,39.7 215.1,39 215.1,38.1 C215.1,37.2 214.8,36.5 214.2,36 C213.6,35.5 212.9,35.2 211.9,35.2 L207.1,35.2 L207.1,41 L207.1,41 Z M222.4,50.7 L222.4,33 C222.4,32.4 222.6,32 223,31.6 C223.4,31.2 223.9,31 224.5,31 C225,31 225.5,31.2 225.9,31.6 C226.3,32 226.5,32.5 226.5,33 L226.5,50.7 C226.5,51.3 226.3,51.7 225.9,52.1 C225.5,52.5 225,52.7 224.4,52.7 C223.8,52.7 223.4,52.5 223,52.1 C222.6,51.7 222.4,51.3 222.4,50.7 L222.4,50.7 Z M229.5,47.8 C229.5,47.1 229.6,46.5 229.8,45.9 C230,45.3 230.3,44.9 230.7,44.5 C231.1,44.1 231.5,43.8 231.9,43.6 C232.4,43.3 232.8,43.2 233.3,43 C233.8,42.9 234.3,42.8 234.8,42.8 C235.8,42.8 236.8,43 237.6,43.3 C238.5,43.6 239.1,44.1 239.7,44.7 L239.7,42.6 C239.7,41.8 239.4,41.2 238.8,40.7 C238.2,40.2 237.4,40 236.3,40 C235,40 233.9,40.3 232.8,41 C232.6,41.1 232.3,41.2 232.1,41.2 C231.7,41.2 231.3,41.1 231,40.8 C230.7,40.5 230.5,40.1 230.5,39.7 C230.5,39.4 230.6,39.2 230.7,38.9 C231.1,38.2 232,37.7 233.3,37.3 C234.6,36.9 235.8,36.7 236.9,36.7 C237.8,36.7 238.7,36.8 239.4,37 C240.2,37.2 240.9,37.5 241.5,38 C242.2,38.4 242.7,39 243,39.8 C243.4,40.6 243.5,41.5 243.5,42.6 L243.5,50.8 C243.5,51.4 243.3,51.8 242.9,52.2 C242.5,52.6 242,52.8 241.5,52.8 L241.2,52.8 C241.1,52.8 240.9,52.8 240.8,52.7 C240.6,52.7 240.4,52.6 240.2,52.5 C240,52.4 239.8,52.2 239.7,51.9 C239.5,51.6 239.5,51.3 239.5,51 C239,51.6 238.3,52.1 237.4,52.5 C236.5,52.8 235.6,53 234.6,53 C234,53 233.3,52.9 232.7,52.7 C232.1,52.5 231.5,52.2 231,51.8 C230.5,51.4 230,50.9 229.7,50.2 C229.7,49.4 229.5,48.7 229.5,47.8 L229.5,47.8 Z M233.6,47.9 C233.6,48.6 233.9,49.2 234.4,49.6 C234.9,50 235.6,50.2 236.5,50.2 C237.2,50.2 237.8,50.1 238.4,49.9 C239,49.7 239.4,49.3 239.8,48.9 L239.8,47 C239.5,46.6 239,46.2 238.4,46 C237.8,45.8 237.2,45.7 236.5,45.7 C235.7,45.7 235,45.9 234.4,46.3 C233.9,46.6 233.6,47.2 233.6,47.9 L233.6,47.9 Z M246.5,38.9 C246.5,38.4 246.7,37.9 247.1,37.5 C247.5,37.1 248,36.9 248.6,36.9 C249,36.9 249.4,37 249.7,37.3 C250,37.5 250.3,37.9 250.5,38.3 L254.1,47.9 L257.7,38.3 C257.8,37.9 258.1,37.6 258.5,37.3 C258.9,37.1 259.3,36.9 259.7,36.9 C260.3,36.9 260.8,37.1 261.1,37.5 C261.5,37.9 261.7,38.4 261.7,38.9 C261.7,39.2 261.7,39.4 261.6,39.6 L255.4,55.1 C254.4,57.6 252.6,58.8 250.1,58.8 C249.4,58.8 248.8,58.6 248.3,58.3 C247.8,58 247.6,57.5 247.6,57 C247.6,56.5 247.8,56.1 248.1,55.7 C248.4,55.3 248.9,55.2 249.5,55.2 L250,55.2 C250.8,55.1 251.3,54.7 251.5,54.1 L252.1,52.8 L246.8,39.6 C246.6,39.4 246.5,39.2 246.5,38.9 L246.5,38.9 Z"></path>
    <path class="st0" d="M50,23.1 C50,21.1 48.4,19.4 46.4,19.4 C44.4,19.4 42.8,21.1 42.8,23.1 L42.8,38.6 C42.8,40.6 44.4,42.3 46.4,42.3 C48.4,42.3 50,40.6 50,38.6 L50,23.1 Z M8.7,20.1 L8.7,44.1 C8.7,46.3 10.4,48 12.6,48.1 L15.2,48.1 L15.2,56.3 C15.2,58.3 16.8,60 18.8,60 C20.8,60 22.4,58.3 22.4,56.3 L22.4,48.1 L27.3,48.1 L27.3,56.3 C27.3,58.3 28.9,60 30.9,60 C32.9,60 34.5,58.3 34.5,56.3 L34.5,48.1 L37.2,48.1 C39.3,48.1 41.1,46.3 41.1,44.1 L41.1,20.1 L8.7,20.1 Z M32.5,12.8 C31.7,12.8 31.1,12.2 31.1,11.4 C31.1,10.6 31.7,10 32.5,10 C33.3,10 33.9,10.6 33.9,11.4 C33.9,12.1 33.2,12.8 32.5,12.8 Z M17.5,12.8 C16.7,12.8 16.1,12.2 16.1,11.4 C16.1,10.6 16.7,10 17.5,10 C18.3,10 18.9,10.6 18.9,11.4 C18.9,12.1 18.3,12.8 17.5,12.8 Z M3.6,19.4 C1.6,19.4 0,21.1 0,23.1 L0,38.6 C0,40.6 1.6,42.3 3.6,42.3 C5.6,42.3 7.2,40.6 7.2,38.6 L7.2,23.1 C7.3,21.1 5.7,19.4 3.6,19.4 Z M33,5.5 L35.5,0.8 C35.6,0.6 35.5,0.2 35.3,0.1 C35.1,5.6177285e-14 34.7,0.1 34.6,0.3 L32,5.1 C29.8,4.1 27.4,3.6 24.9,3.6 C22.3,3.6 19.9,4.1 17.8,5.1 L15.2,0.3 C15.1,5.6177285e-14 14.8,5.6177285e-14 14.5,0.1 C14.3,0.2 14.2,0.6 14.3,0.8 L16.8,5.5 C11.8,8.1 8.4,13.1 8.4,18.8 L41.2,18.8 C41.4,13.1 38,8.1 33,5.5 Z"></path>
</svg>