<svg id="lightbulb-hero" width="178px" height="244px" viewBox="0 0 178 244" version="1.1" xmlns="http://www.w3.org/2000/svg" xmlns:xlink="http://www.w3.org/1999/xlink" xmlns:sketch="http://www.bohemiancoding.com/sketch/ns">
            <defs>
            <path id="savedPath" d="M0,0L272,0L272,272L0,272"></path>
            <filter x="-50%" y="-50%" width="200%" height="200%" filterUnits="objectBoundingBox" id="glowBulbFilter">
                <feOffset dx="0" dy="0" in="SourceAlpha" result="shadowOffsetOuter1"></feOffset>
                <feGaussianBlur stdDeviation="25" in="shadowOffsetOuter1" result="shadowBlurOuter1"></feGaussianBlur>
                <feColorMatrix values="0 0 0 0 1   0 0 0 0 1   0 0 0 0 1  0 0 0 0.35 0" in="shadowBlurOuter1" type="matrix" result="shadowMatrixOuter1"></feColorMatrix>
                <feMerge>
                    <feMergeNode in="shadowMatrixOuter1"></feMergeNode>
                    <feMergeNode in="SourceGraphic"></feMergeNode>
                </feMerge>
            </filter>
            </defs>
            <g id="lightbulb-group" stroke="none" stroke-width="1" fill="none" fill-rule="evenodd" sketch:type="MSPage">
            <g>
            <g class="suitBody">
            <mask id="bodyMask" sketch:name="Clip 36" fill="white">
                <use xlink:href="#savedPath"></use>
            </mask>
            <g></g>
            <path id="Fill-35" fill="#F4F4F4" mask="url(#bodyMask)" d="M163.96275329589844,175.5607147216797C152.84202575683594,164.68389892578125,138.34034729003906,157.2528533935547,122.18263244628906,154.9789276123047C114.89938354492188,165.48855590820312,102.75459289550781,172.3733367919922,89,172.3733367919922C75.24495697021484,172.3733367919922,63.10015869140625,165.48855590820312,55.81690979003906,154.9789276123047C39.65965270996094,157.2528533935547,25.157974243164062,164.68389892578125,14.037254333496094,175.5607147216797C5.385387420654297,184.02218627929688,0.5999984741210938,195.67556762695312,0.5999984741210938,207.77731323242188L0.5999984741210938,312.90667724609375L177.39999389648438,312.90667724609375L177.39999389648438,207.77731323242188C177.39999389648438,195.67556762695312,172.61460876464844,184.02218627929688,163.96275329589844,175.5607147216797"></path>
            <path id="Fill-37" fill="#2F4890" mask="url(/#bodyMask)" d="M157.3730926513672,169.83058166503906C147.35443115234375,162.08493041992188,135.31661987304688,156.82717895507812,122.18354797363281,154.97802734375C114.90029907226562,165.4881134033203,102.75503540039062,172.3733367919922,89,172.3733367919922C75.2445068359375,172.3733367919922,63.09925079345703,165.4881134033203,55.816001892089844,154.97756958007812C42.85111999511719,156.8031463623047,30.953842163085938,161.95120239257812,21.012237548828125,169.53456115722656C28.882102966308594,173.31399536132812,35.05333709716797,209.26559448242188,35.05333709716797,253.06668090820312C35.05333709716797,276.502197265625,33.285789489746094,297.6891784667969,30.437950134277344,312.90667724609375L148.46871948242188,312.90667724609375C145.62088012695312,297.6891784667969,143.85333251953125,276.502197265625,143.85333251953125,253.06668090820312C143.85333251953125,210.23663330078125,149.75392150878906,174.90928649902344,157.3730926513672,169.83058166503906"></path>
            <path id="Fill-38" fill="#DD4E61" mask="url(#bodyMask)" d="M89,168.74667358398438C101.12123107910156,169.60482788085938,107.70452880859375,183.79551696777344,107.70452880859375,183.79551696777344L95.54612731933594,200.28099060058594L107.70452880859375,306.39544677734375L89,334.21331787109375L89,176.41842651367188"></path>
            <path id="Fill-39" fill="#DD4E61" mask="url(#bodyMask)" d="M89,168.74667358398438C76.8783187866211,169.60482788085938,70.29546356201172,183.79551696777344,70.29546356201172,183.79551696777344L82.45387268066406,200.28099060058594L70.29546356201172,306.39544677734375L89,334.21331787109375L89,176.41842651367188"></path>
            <path id="Fill-41" fill="#FFFFFF" mask="url(#bodyMask)" d="M59.53333282470703,200.97866821289062L89.13690185546875,171.9199981689453L118.46665954589844,200.97866821289062L127.75999450683594,155.6453399658203L119.60090637207031,147.89332580566406C118.15341186523438,150.84725952148438,116.43708801269531,153.38772583007812,114.55938720703125,155.51431274414062C104.20797729492188,167.3300018310547,89.13690185546875,167.3300018310547,89.13690185546875,167.3300018310547C89.13690185546875,167.3300018310547,74.01234436035156,167.3300018310547,63.71442413330078,155.51431274414062C61.83717346191406,153.38772583007812,60.120849609375,150.84725952148438,58.673362731933594,147.89332580566406L50.23999786376953,155.6453399658203L59.53333282470703,200.97866821289062"></path>
            </g>
            <g class="lampHead" sketch:type="MSShapeGroup">
            <path id="Rectangle-26" fill="#CCCCCC" d="M76.76000213623047,116.68000030517578L101.24000549316406,116.68000030517578L101.24000549316406,126.65332794189453L76.76000213623047,126.65332794189453L76.76000213623047,116.68000030517578ZM78.57333374023438,131.18666076660156L99.42666625976562,131.18666076660156L99.42666625976562,133.9066619873047C99.42666625976562,135.40887451171875,98.21537017822266,136.6266632080078,96.7004623413086,136.6266632080078L81.29954528808594,136.6266632080078C79.79389953613281,136.6266632080078,78.57333374023438,135.40582275390625,78.57333374023438,133.9066619873047L78.57333374023438,131.18666076660156Z"></path>
            <path id="lightbulb-head" fill="#FFFFFF" fill-opacity="0.9" filter="url(#glowBulbFilter)" d="M65.96160125732422,60.95886993408203C74.8106689453125,43.3745231628418,102.84933471679688,43.381778717041016,112.01119995117188,60.95886993408203C121.17306518554688,78.53550720214844,113.40973663330078,87.65249633789062,106.74664306640625,97.19108581542969C100.08309936523438,106.72921752929688,101.98845672607422,112.14518737792969,101.98845672607422,112.14518737792969L77.0351791381836,112.14518737792969C77.0351791381836,112.14473724365234,78.7959213256836,105.93225860595703,71.4106674194336,97.19108581542969C64.02496337890625,88.449462890625,57.1125373840332,78.54276275634766,65.96160125732422,60.95886993408203Z"></path>
            <path id="Stroke-13" opacity="0.6" stroke="#FFBE00" stroke-width="3" d="M92.65386962890625,112.44949340820312L92.65386962890625,86.07138061523438C92.65386962890625,84.1234130859375,94.24778747558594,82.52949523925781,96.19576263427734,82.52949523925781C98.14373779296875,82.52949523925781,99.73719787597656,84.1234130859375,99.73719787597656,86.07138061523438C99.73719787597656,88.01935577392578,98.14373779296875,89.61282348632812,96.19576263427734,89.61282348632812L81.80469512939453,89.61282348632812C79.85671997070312,89.61282348632812,78.26280212402344,88.01935577392578,78.26280212402344,86.07138061523438C78.26280212402344,84.1234130859375,79.85671997070312,82.52949523925781,81.80469512939453,82.52949523925781C83.75221252441406,82.52949523925781,85.34613800048828,84.1234130859375,85.34613800048828,86.07138061523438L85.34613800048828,112.44949340820312"></path>
            <path id="Rectangle-23" fill="#EFEFEF" d="M74.94667053222656,114.413330078125C74.94667053222656,113.16148376464844,75.96360778808594,112.14666748046875,77.22294616699219,112.14666748046875L100.77705383300781,112.14666748046875C102.03421020507812,112.14666748046875,103.05333709716797,113.15275573730469,103.05333709716797,114.413330078125C103.05333709716797,115.66517639160156,102.0363998413086,116.68000030517578,100.77705383300781,116.68000030517578L77.22294616699219,116.68000030517578C75.9657974243164,116.68000030517578,74.94667053222656,115.67390441894531,74.94667053222656,114.413330078125ZM74.94667053222656,121.66666412353516C74.94667053222656,120.4148178100586,75.96360778808594,119.39999389648438,77.22294616699219,119.39999389648438L100.77705383300781,119.39999389648438C102.03421020507812,119.39999389648438,103.05333709716797,120.40608978271484,103.05333709716797,121.66666412353516C103.05333709716797,122.91851043701172,102.0363998413086,123.93333435058594,100.77705383300781,123.93333435058594L77.22294616699219,123.93333435058594C75.9657974243164,123.93333435058594,74.94667053222656,122.92723846435547,74.94667053222656,121.66666412353516ZM74.94667053222656,128.9199981689453C74.94667053222656,127.66815185546875,75.96360778808594,126.65332794189453,77.22294616699219,126.65332794189453L100.77705383300781,126.65332794189453C102.03421020507812,126.65332794189453,103.05333709716797,127.659423828125,103.05333709716797,128.9199981689453C103.05333709716797,130.17184448242188,102.0363998413086,131.18666076660156,100.77705383300781,131.18666076660156L77.22294616699219,131.18666076660156C75.9657974243164,131.18666076660156,74.94667053222656,130.18057250976562,74.94667053222656,128.9199981689453Z"></path>
            </g>
            </g>
            </g>
            </svg>