<?xml version="1.0" encoding="utf-8"?>
<!-- Generator: Adobe Illustrator 19.1.0, SVG Export Plug-In . SVG Version: 6.00 Build 0)  -->
<svg version="1.1" id="Camada_1" xmlns="http://www.w3.org/2000/svg" xmlns:xlink="http://www.w3.org/1999/xlink" x="0px" y="0px"
	 viewBox="-509 371 261 60" style="enable-background:new -509 371 261 60;" xml:space="preserve">
<style type="text/css">
	.st0{fill:#CCCCCC;}
</style>
<path class="st0" d="M-419.4,386.6c-0.5-1.1-0.7-2.3-0.7-3.6c0-1.3,0.2-2.5,0.7-3.7s1.1-2.1,1.9-2.9s1.8-1.4,2.9-1.8
	c1.1-0.4,2.3-0.7,3.6-0.7c2.6,0,4.7,1,6.3,2.9c0.2,0.3,0.4,0.7,0.4,1c0,0.5-0.2,0.9-0.5,1.2s-0.8,0.5-1.2,0.5c-0.5,0-1-0.2-1.4-0.6
	c-1.1-1.1-2.2-1.7-3.6-1.7c-1.6,0-2.9,0.5-3.9,1.6s-1.5,2.4-1.5,4.1c0,1.6,0.5,3,1.5,4.1c1,1.1,2.3,1.6,3.9,1.6
	c0.7,0,1.3-0.1,1.9-0.4c0.6-0.3,1.2-0.7,1.6-1.2c0.4-0.4,0.9-0.6,1.4-0.6c0.5,0,0.9,0.2,1.2,0.5s0.5,0.7,0.5,1.1
	c0,0.4-0.1,0.7-0.4,1c-1.6,1.9-3.7,2.9-6.3,2.9c-1.3,0-2.5-0.2-3.6-0.7s-2.1-1-2.9-1.8C-418.3,388.6-418.9,387.7-419.4,386.6z
	 M-402.3,385.3c0-1.2,0.3-2.3,0.8-3.3c0.5-1,1.3-1.8,2.3-2.4c1-0.6,2.2-0.9,3.5-0.9c1.3,0,2.5,0.3,3.5,0.9c1,0.6,1.8,1.4,2.3,2.4
	c0.5,1,0.8,2.1,0.8,3.3c0,0.9-0.2,1.7-0.5,2.5c-0.3,0.8-0.7,1.5-1.3,2.1c-0.6,0.6-1.3,1.1-2.1,1.4c-0.8,0.4-1.8,0.5-2.8,0.5
	c-1.3,0-2.5-0.3-3.5-0.9c-1-0.6-1.8-1.4-2.3-2.4C-402.1,387.6-402.3,386.5-402.3,385.3z M-398.9,385.3c0,1,0.3,1.9,0.9,2.6
	c0.6,0.7,1.4,1.1,2.3,1.1s1.8-0.4,2.4-1.1c0.6-0.7,0.9-1.6,0.9-2.6c0-1-0.3-1.9-0.9-2.6c-0.6-0.7-1.4-1-2.4-1s-1.8,0.3-2.3,1
	C-398.6,383.4-398.9,384.2-398.9,385.3z M-386.6,390.1v-9.6c0-0.4,0.2-0.8,0.5-1.1s0.7-0.5,1.2-0.5c0.4,0,0.8,0.2,1.1,0.5
	c0.3,0.3,0.5,0.7,0.5,1.1v0.2c0.3-0.5,0.9-0.9,1.6-1.3s1.6-0.6,2.5-0.6c0.9,0,1.6,0.2,2.2,0.6s1,1,1.2,1.7c0.4-0.6,1-1.2,1.8-1.6
	c0.8-0.5,1.6-0.7,2.6-0.7c1.2,0,2.1,0.3,2.7,1c0.6,0.6,1,1.6,1,2.8v7.6c0,0.5-0.2,0.8-0.5,1.2c-0.3,0.3-0.7,0.5-1.2,0.5
	c-0.5,0-0.8-0.2-1.2-0.5c-0.3-0.3-0.5-0.7-0.5-1.2v-6.4c0-0.6-0.2-1.1-0.5-1.5c-0.3-0.4-0.8-0.5-1.4-0.5c-0.5,0-1,0.1-1.5,0.4
	s-0.8,0.6-1.1,1v7c0,0.5-0.2,0.8-0.5,1.2c-0.3,0.3-0.7,0.5-1.2,0.5c-0.5,0-0.8-0.2-1.1-0.5c-0.3-0.3-0.5-0.7-0.5-1.2v-6.4
	c0-1.3-0.6-2-1.9-2c-0.5,0-1,0.1-1.5,0.4c-0.5,0.3-0.8,0.6-1.1,1v7c0,0.5-0.2,0.8-0.5,1.2c-0.3,0.3-0.7,0.5-1.2,0.5
	c-0.5,0-0.8-0.2-1.2-0.5C-386.4,390.9-386.6,390.5-386.6,390.1z M-364.2,377.1c-0.4-0.4-0.6-0.8-0.6-1.4s0.2-1,0.6-1.4
	s0.9-0.6,1.4-0.6c0.5,0,1,0.2,1.4,0.6c0.4,0.4,0.6,0.8,0.6,1.4s-0.2,1-0.6,1.4c-0.4,0.4-0.9,0.6-1.4,0.6
	C-363.4,377.6-363.8,377.5-364.2,377.1z M-364.5,390.1v-9.6c0-0.4,0.2-0.8,0.5-1.1s0.7-0.5,1.2-0.5c0.4,0,0.8,0.2,1.1,0.5
	c0.3,0.3,0.5,0.7,0.5,1.1v9.6c0,0.5-0.2,0.8-0.5,1.2c-0.3,0.3-0.7,0.5-1.2,0.5c-0.5,0-0.8-0.2-1.2-0.5
	C-364.3,390.9-364.5,390.5-364.5,390.1z M-357.9,390.1v-9.6c0-0.4,0.2-0.8,0.5-1.1s0.7-0.5,1.2-0.5c0.4,0,0.8,0.2,1.1,0.5
	c0.3,0.3,0.5,0.7,0.5,1.1v0.2c0.5-0.5,1.1-1,1.8-1.4c0.8-0.4,1.6-0.6,2.6-0.6c1.3,0,2.4,0.4,3.1,1.1c0.7,0.7,1,1.7,1,3v7.4
	c0,0.5-0.2,0.8-0.5,1.2c-0.3,0.3-0.7,0.5-1.2,0.5c-0.5,0-0.8-0.2-1.2-0.5c-0.3-0.3-0.5-0.7-0.5-1.2V384c0-0.8-0.2-1.4-0.6-1.8
	c-0.4-0.4-1-0.5-1.7-0.5c-0.6,0-1.2,0.1-1.7,0.4c-0.5,0.3-0.9,0.6-1.2,1v7c0,0.5-0.2,0.8-0.5,1.2c-0.3,0.3-0.7,0.5-1.2,0.5
	c-0.5,0-0.8-0.2-1.2-0.5C-357.7,390.9-357.9,390.5-357.9,390.1z M-343.6,385.1c0-2,0.5-3.6,1.5-4.7c1-1.1,2.4-1.7,4-1.7
	c1.5,0,2.8,0.6,3.9,1.9v-0.1c0-0.5,0.2-0.8,0.5-1.2c0.3-0.3,0.7-0.5,1.2-0.5c0.5,0,0.8,0.2,1.2,0.5c0.3,0.3,0.5,0.7,0.5,1.2v10.2
	c0,0.9-0.1,1.7-0.4,2.5c-0.3,0.7-0.6,1.3-1.1,1.7s-1,0.8-1.6,1.1s-1.2,0.5-1.8,0.6s-1.2,0.2-1.9,0.2c-1,0-1.9-0.1-2.9-0.4
	s-1.6-0.6-2-1.2c-0.1-0.2-0.2-0.5-0.2-0.7c0-0.4,0.1-0.7,0.4-1c0.3-0.3,0.6-0.4,1-0.4c0.3,0,0.5,0.1,0.7,0.2c0.8,0.5,1.8,0.8,3,0.8
	c0.4,0,0.8-0.1,1.2-0.2c0.4-0.1,0.7-0.3,1.1-0.5c0.3-0.2,0.6-0.6,0.8-1c0.2-0.4,0.3-0.9,0.3-1.5v-1.3c-1,1.3-2.3,2-3.9,2
	c-1.6,0-3-0.6-4-1.7C-343.1,388.7-343.6,387.1-343.6,385.1z M-339.4,382.6c-0.6,0.6-0.9,1.5-0.9,2.5s0.3,1.9,0.9,2.5
	s1.4,0.9,2.3,0.9c0.5,0,1.1-0.1,1.6-0.4s0.9-0.6,1.2-1v-4.1c-0.3-0.4-0.7-0.8-1.2-1c-0.5-0.3-1.1-0.4-1.6-0.4
	C-338,381.6-338.8,381.9-339.4,382.6z M-321.7,389.5c0-0.4,0.1-0.7,0.4-1c0.3-0.3,0.6-0.4,0.9-0.4c0.3,0,0.5,0.1,0.7,0.2
	c1.2,0.7,2.3,1,3.4,1c0.7,0,1.2-0.1,1.6-0.4c0.4-0.2,0.5-0.6,0.5-1c0-0.3-0.1-0.5-0.4-0.7s-0.6-0.3-1-0.4c-0.4-0.1-0.9-0.2-1.4-0.3
	c-0.5-0.1-1-0.2-1.6-0.4s-1.1-0.4-1.5-0.7s-0.8-0.6-1.1-1.1c-0.3-0.5-0.4-1.1-0.4-1.7c0-1.1,0.5-2.1,1.4-2.8
	c0.9-0.8,2.2-1.2,3.8-1.2c0.9,0,1.8,0.1,2.7,0.4c0.9,0.3,1.5,0.7,1.9,1.1c0.1,0.2,0.2,0.4,0.2,0.7c0,0.3-0.1,0.6-0.4,0.9
	c-0.3,0.2-0.6,0.4-0.9,0.4c-0.2,0-0.4-0.1-0.6-0.2c-0.9-0.5-1.8-0.7-2.9-0.7c-0.6,0-1.1,0.1-1.4,0.4s-0.5,0.5-0.5,0.9
	c0,0.2,0.2,0.4,0.5,0.6c0.3,0.2,0.7,0.3,1.1,0.4c0.4,0.1,0.8,0.2,1.3,0.3c0.5,0.1,1,0.2,1.6,0.4c0.6,0.2,1.1,0.4,1.5,0.7
	c0.4,0.3,0.8,0.7,1,1.2c0.3,0.5,0.4,1.1,0.4,1.8c0,1.2-0.5,2.1-1.4,2.9s-2.3,1.1-4,1.1c-0.9,0-1.9-0.1-2.9-0.4
	c-1-0.3-1.7-0.7-2.1-1.2C-321.6,390-321.7,389.8-321.7,389.5z M-309.4,385.3c0-1.2,0.3-2.3,0.8-3.3c0.5-1,1.3-1.8,2.3-2.4
	c1-0.6,2.2-0.9,3.5-0.9c1.3,0,2.5,0.3,3.5,0.9c1,0.6,1.8,1.4,2.3,2.4c0.5,1,0.8,2.1,0.8,3.3c0,0.9-0.2,1.7-0.5,2.5
	c-0.3,0.8-0.7,1.5-1.3,2.1c-0.6,0.6-1.3,1.1-2.1,1.4c-0.8,0.4-1.8,0.5-2.8,0.5c-1.3,0-2.5-0.3-3.5-0.9c-1-0.6-1.8-1.4-2.3-2.4
	C-309.1,387.6-309.4,386.5-309.4,385.3z M-306,385.3c0,1,0.3,1.9,0.9,2.6c0.6,0.7,1.4,1.1,2.3,1.1s1.8-0.4,2.4-1.1
	c0.6-0.7,0.9-1.6,0.9-2.6c0-1-0.3-1.9-0.9-2.6c-0.6-0.7-1.4-1-2.4-1s-1.8,0.3-2.3,1C-305.7,383.4-306,384.2-306,385.3z
	 M-294.5,385.3c0-1.2,0.3-2.3,0.8-3.3c0.5-1,1.3-1.8,2.3-2.4c1-0.6,2.2-0.9,3.5-0.9c1.3,0,2.5,0.3,3.5,0.9c1,0.6,1.8,1.4,2.3,2.4
	c0.5,1,0.8,2.1,0.8,3.3c0,0.9-0.2,1.7-0.5,2.5c-0.3,0.8-0.7,1.5-1.3,2.1c-0.6,0.6-1.2,1.1-2.1,1.4c-0.8,0.4-1.8,0.5-2.8,0.5
	c-1.3,0-2.5-0.3-3.5-0.9c-1-0.6-1.8-1.4-2.3-2.4C-294.2,387.6-294.5,386.5-294.5,385.3z M-291.1,385.3c0,1,0.3,1.9,0.9,2.6
	c0.6,0.7,1.4,1.1,2.3,1.1s1.8-0.4,2.4-1.1c0.6-0.7,0.9-1.6,0.9-2.6c0-1-0.3-1.9-0.9-2.6c-0.6-0.7-1.4-1-2.4-1s-1.8,0.3-2.3,1
	C-290.8,383.4-291.1,384.2-291.1,385.3z M-278.7,390.1v-9.6c0-0.4,0.2-0.8,0.5-1.1s0.7-0.5,1.2-0.5c0.4,0,0.8,0.2,1.1,0.5
	c0.3,0.3,0.5,0.7,0.5,1.1v0.2c0.5-0.5,1.1-1,1.8-1.4c0.8-0.4,1.6-0.6,2.6-0.6c1.3,0,2.4,0.4,3.1,1.1c0.7,0.7,1,1.7,1,3v7.4
	c0,0.5-0.2,0.8-0.5,1.2c-0.3,0.3-0.7,0.5-1.2,0.5c-0.5,0-0.8-0.2-1.2-0.5c-0.3-0.3-0.5-0.7-0.5-1.2V384c0-0.8-0.2-1.4-0.6-1.8
	c-0.4-0.4-1-0.5-1.7-0.5c-0.6,0-1.2,0.1-1.7,0.4c-0.5,0.3-0.9,0.6-1.2,1v7c0,0.5-0.2,0.8-0.5,1.2c-0.3,0.3-0.7,0.5-1.2,0.5
	c-0.5,0-0.8-0.2-1.2-0.5C-278.6,390.9-278.7,390.5-278.7,390.1z M-419.9,412.9c0-2.2,0.5-4.1,1.5-5.8c1-1.7,2.4-3,4.1-3.9
	c1.7-0.9,3.6-1.3,5.7-1.3c3.1,0,5.7,1,7.6,3.1c0.4,0.4,0.5,0.9,0.5,1.4c0,0.6-0.2,1-0.6,1.4c-0.4,0.4-0.9,0.6-1.5,0.6
	c-0.6,0-1.1-0.2-1.5-0.6c-1.3-1.2-2.8-1.9-4.4-1.9c-1.9,0-3.5,0.7-4.8,2c-1.3,1.3-1.9,3-1.9,5c0,2,0.6,3.7,1.9,5
	c1.3,1.3,2.9,2,4.8,2c0.9,0,1.7-0.2,2.6-0.5s1.5-0.7,2-1.1v-2.6h-3.9c-0.6,0-1-0.2-1.4-0.6s-0.6-0.9-0.6-1.4c0-0.6,0.2-1,0.6-1.4
	c0.4-0.4,0.8-0.6,1.4-0.6h5.8c0.7,0,1.3,0.3,1.8,0.8c0.5,0.5,0.8,1.1,0.8,1.8v3.6c0,0.8-0.2,1.5-0.5,2.1c-0.4,0.7-0.8,1.2-1.4,1.7
	c-0.6,0.5-1.3,0.9-2.1,1.2c-0.8,0.3-1.6,0.6-2.5,0.8c-0.9,0.2-1.7,0.2-2.6,0.2c-1.6,0-3-0.3-4.4-0.8c-1.4-0.5-2.6-1.3-3.6-2.2
	c-1-0.9-1.8-2.1-2.4-3.5C-419.6,416.1-419.9,414.5-419.9,412.9z M-396.9,415.8c0-1.5,0.3-2.8,1-4c0.6-1.2,1.6-2.2,2.8-2.9
	c1.3-0.7,2.7-1.1,4.3-1.1c1.7,0,3.1,0.4,4.4,1.1c1.3,0.7,2.2,1.7,2.8,2.9c0.6,1.2,1,2.6,1,4c0,1.1-0.2,2.1-0.6,3.1s-0.9,1.8-1.6,2.6
	c-0.7,0.7-1.5,1.3-2.6,1.8c-1,0.4-2.2,0.6-3.4,0.6c-1.6,0-3.1-0.4-4.3-1.1c-1.3-0.7-2.2-1.7-2.8-3
	C-396.6,418.7-396.9,417.3-396.9,415.8z M-392.8,415.8c0,1.3,0.4,2.3,1.1,3.2c0.7,0.9,1.7,1.3,2.9,1.3s2.2-0.4,2.9-1.3
	c0.7-0.9,1.1-1.9,1.1-3.2c0-1.3-0.4-2.3-1.1-3.2s-1.7-1.3-2.9-1.3s-2.2,0.4-2.9,1.3S-392.8,414.6-392.8,415.8z M-378.6,415.8
	c0-1.5,0.3-2.8,1-4c0.6-1.2,1.6-2.2,2.8-2.9c1.3-0.7,2.7-1.1,4.3-1.1c1.7,0,3.1,0.4,4.4,1.1c1.3,0.7,2.2,1.7,2.8,2.9
	c0.6,1.2,1,2.6,1,4c0,1.1-0.2,2.1-0.6,3.1c-0.4,1-0.9,1.8-1.6,2.6c-0.7,0.7-1.5,1.3-2.6,1.8c-1,0.4-2.2,0.6-3.4,0.6
	c-1.6,0-3.1-0.4-4.3-1.1c-1.3-0.7-2.2-1.7-2.8-3C-378.3,418.7-378.6,417.3-378.6,415.8z M-374.4,415.8c0,1.3,0.4,2.3,1.1,3.2
	c0.7,0.9,1.7,1.3,2.9,1.3s2.2-0.4,2.9-1.3c0.7-0.9,1.1-1.9,1.1-3.2c0-1.3-0.4-2.3-1.1-3.2s-1.7-1.3-2.9-1.3s-2.2,0.4-2.9,1.3
	S-374.4,414.6-374.4,415.8z M-360.2,415.6c0-2.5,0.6-4.4,1.9-5.8s2.9-2.1,4.9-2.1c1.9,0,3.5,0.8,4.8,2.4v-0.2c0-0.6,0.2-1,0.6-1.4
	c0.4-0.4,0.9-0.6,1.5-0.6c0.6,0,1,0.2,1.4,0.6c0.4,0.4,0.6,0.9,0.6,1.4v12.6c0,1.1-0.2,2.1-0.5,3c-0.3,0.9-0.8,1.6-1.3,2.1
	c-0.5,0.5-1.2,1-1.9,1.3s-1.5,0.6-2.2,0.7c-0.7,0.1-1.5,0.2-2.3,0.2c-1.2,0-2.4-0.2-3.6-0.5c-1.2-0.3-2-0.8-2.4-1.4
	c-0.2-0.3-0.3-0.6-0.3-0.9c0-0.5,0.2-0.9,0.5-1.2c0.3-0.3,0.7-0.5,1.2-0.5c0.3,0,0.6,0.1,0.9,0.2c1,0.6,2.3,1,3.7,1
	c0.5,0,1-0.1,1.5-0.2c0.5-0.1,0.9-0.3,1.3-0.6c0.4-0.3,0.8-0.7,1-1.2s0.4-1.2,0.4-1.9V421c-1.3,1.6-2.9,2.4-4.8,2.4
	c-2,0-3.6-0.7-4.9-2.1S-360.2,418.1-360.2,415.6z M-355,412.5c-0.7,0.8-1.1,1.8-1.1,3.1s0.4,2.3,1.1,3.1c0.7,0.8,1.7,1.1,2.8,1.1
	c0.7,0,1.3-0.2,2-0.5c0.7-0.3,1.2-0.8,1.5-1.2v-5c-0.3-0.5-0.8-0.9-1.5-1.3s-1.3-0.5-2-0.5C-353.3,411.3-354.2,411.7-355,412.5z
	 M-340.5,421.7V404c0-0.6,0.2-1,0.6-1.4c0.4-0.4,0.9-0.6,1.5-0.6c0.5,0,1,0.2,1.4,0.6c0.4,0.4,0.6,0.9,0.6,1.4v17.7
	c0,0.6-0.2,1-0.6,1.4c-0.4,0.4-0.9,0.6-1.5,0.6c-0.6,0-1-0.2-1.4-0.6S-340.5,422.3-340.5,421.7z M-333.4,415.8c0-1.5,0.3-2.8,1-4.1
	c0.7-1.2,1.6-2.2,2.9-2.9c1.2-0.7,2.6-1.1,4.1-1.1c1.7,0,3.2,0.5,4.5,1.4c1.3,0.9,2.2,2.2,2.7,3.8c0.3,1,0.5,1.8,0.5,2.3
	c0,0.5-0.2,0.9-0.6,1.3c-0.4,0.4-0.8,0.5-1.3,0.5h-9.5c0.1,1,0.6,1.9,1.4,2.6c0.8,0.7,1.8,1,3.1,1c1.1,0,2.1-0.3,3-0.8
	c0.3-0.1,0.5-0.2,0.8-0.2c0.4,0,0.8,0.2,1.2,0.5c0.4,0.3,0.5,0.7,0.5,1.2c0,0.4-0.2,0.8-0.6,1.2c-0.4,0.3-1,0.6-1.6,0.8
	c-0.6,0.2-1.3,0.3-1.9,0.4c-0.7,0.1-1.3,0.1-1.8,0.1c-2.4,0-4.4-0.7-5.9-2.2C-332.6,420.2-333.4,418.2-333.4,415.8z M-329.2,414.4
	h7.6c0-0.4-0.1-0.8-0.3-1.2c-0.2-0.4-0.4-0.7-0.7-1.1c-0.3-0.3-0.7-0.6-1.2-0.8c-0.5-0.2-1.1-0.3-1.7-0.3c-0.6,0-1.1,0.1-1.6,0.3
	c-0.5,0.2-0.9,0.5-1.2,0.8c-0.3,0.3-0.5,0.7-0.7,1.1C-329.1,413.6-329.2,414-329.2,414.4z M-306.5,421.5v-16.7
	c0-0.7,0.3-1.3,0.8-1.8c0.5-0.5,1.1-0.8,1.8-0.8h7.4c1.1,0,2.1,0.2,3.1,0.5c0.9,0.4,1.7,0.9,2.3,1.5c0.6,0.6,1,1.4,1.4,2.2
	s0.5,1.7,0.5,2.7c0,0.9-0.2,1.8-0.5,2.6c-0.3,0.8-0.8,1.6-1.4,2.2c-0.6,0.6-1.3,1.1-2.3,1.5c-0.9,0.4-1.9,0.6-3.1,0.6h-5.4v5.5
	c0,0.6-0.2,1.1-0.7,1.6c-0.4,0.4-1,0.7-1.6,0.7c-0.6,0-1.1-0.2-1.6-0.7C-306.2,422.6-306.5,422.1-306.5,421.5z M-301.9,412h4.8
	c0.9,0,1.7-0.3,2.3-0.8c0.6-0.5,0.9-1.2,0.9-2.1c0-0.9-0.3-1.6-0.9-2.1c-0.6-0.5-1.3-0.8-2.3-0.8h-4.8V412z M-286.6,421.7V404
	c0-0.6,0.2-1,0.6-1.4c0.4-0.4,0.9-0.6,1.5-0.6c0.5,0,1,0.2,1.4,0.6c0.4,0.4,0.6,0.9,0.6,1.4v17.7c0,0.6-0.2,1-0.6,1.4
	c-0.4,0.4-0.9,0.6-1.5,0.6c-0.6,0-1-0.2-1.4-0.6S-286.6,422.3-286.6,421.7z M-279.5,418.8c0-0.7,0.1-1.3,0.3-1.9
	c0.2-0.6,0.5-1,0.9-1.4s0.8-0.7,1.2-0.9c0.5-0.3,0.9-0.4,1.4-0.6c0.5-0.1,1-0.2,1.5-0.2c1,0,2,0.2,2.8,0.5c0.9,0.3,1.5,0.8,2.1,1.4
	v-2.1c0-0.8-0.3-1.4-0.9-1.9c-0.6-0.5-1.4-0.7-2.5-0.7c-1.3,0-2.4,0.3-3.5,1c-0.2,0.1-0.5,0.2-0.7,0.2c-0.4,0-0.8-0.1-1.1-0.4
	c-0.3-0.3-0.5-0.7-0.5-1.1c0-0.3,0.1-0.5,0.2-0.8c0.4-0.7,1.3-1.2,2.6-1.6c1.3-0.4,2.5-0.6,3.6-0.6c0.9,0,1.8,0.1,2.5,0.3
	c0.8,0.2,1.5,0.5,2.1,1c0.7,0.4,1.2,1,1.5,1.8c0.4,0.8,0.5,1.7,0.5,2.8v8.2c0,0.6-0.2,1-0.6,1.4c-0.4,0.4-0.9,0.6-1.4,0.6h-0.3
	c-0.1,0-0.3,0-0.4-0.1c-0.2,0-0.4-0.1-0.6-0.2c-0.2-0.1-0.4-0.3-0.5-0.6c-0.2-0.3-0.2-0.6-0.2-0.9c-0.5,0.6-1.2,1.1-2.1,1.5
	c-0.9,0.3-1.8,0.5-2.8,0.5c-0.6,0-1.3-0.1-1.9-0.3c-0.6-0.2-1.2-0.5-1.7-0.9c-0.5-0.4-1-0.9-1.3-1.6
	C-279.3,420.4-279.5,419.7-279.5,418.8z M-275.4,418.9c0,0.7,0.3,1.3,0.8,1.7s1.2,0.6,2.1,0.6c0.7,0,1.3-0.1,1.9-0.3
	c0.6-0.2,1-0.6,1.4-1v-1.9c-0.3-0.4-0.8-0.8-1.4-1s-1.2-0.3-1.9-0.3c-0.8,0-1.5,0.2-2.1,0.6C-275.1,417.6-275.4,418.2-275.4,418.9z
	 M-262.5,409.9c0-0.5,0.2-1,0.6-1.4c0.4-0.4,0.9-0.6,1.5-0.6c0.4,0,0.8,0.1,1.1,0.4c0.3,0.2,0.6,0.6,0.8,1l3.6,9.6l3.6-9.6
	c0.1-0.4,0.4-0.7,0.8-1c0.4-0.2,0.8-0.4,1.2-0.4c0.6,0,1.1,0.2,1.4,0.6c0.4,0.4,0.6,0.9,0.6,1.4c0,0.3,0,0.5-0.1,0.7l-6.2,15.5
	c-1,2.5-2.8,3.7-5.3,3.7c-0.7,0-1.3-0.2-1.8-0.5c-0.5-0.3-0.7-0.8-0.7-1.3c0-0.5,0.2-0.9,0.5-1.3s0.8-0.5,1.4-0.5c0.2,0,0.4,0,0.5,0
	c0.8-0.1,1.3-0.5,1.5-1.1l0.6-1.3l-5.3-13.2C-262.4,410.4-262.5,410.2-262.5,409.9z M-505.4,390.4c-2,0-3.6,1.7-3.6,3.7l0,15.5
	c0,2,1.6,3.7,3.6,3.7c2,0,3.6-1.7,3.6-3.7l0-15.5C-501.7,392.1-503.3,390.4-505.4,390.4 M-476,376.5l2.5-4.7c0.1-0.2,0-0.6-0.2-0.7
	c-0.2-0.1-0.6,0-0.7,0.2l-2.6,4.8c-2.2-1-4.6-1.5-7.1-1.5c-2.6,0-5,0.5-7.1,1.5l-2.6-4.8c-0.1-0.3-0.4-0.3-0.7-0.2
	c-0.2,0.1-0.3,0.5-0.2,0.7l2.5,4.7c-5,2.6-8.4,7.6-8.4,13.3l32.8,0C-467.6,384.1-471,379.1-476,376.5 M-491.5,383.8
	c-0.8,0-1.4-0.6-1.4-1.4c0-0.8,0.6-1.4,1.4-1.4c0.8,0,1.4,0.6,1.4,1.4C-490.1,383.1-490.7,383.8-491.5,383.8 M-476.5,383.8
	c-0.8,0-1.4-0.6-1.4-1.4c0-0.8,0.6-1.4,1.4-1.4c0.8,0,1.4,0.6,1.4,1.4C-475.1,383.1-475.8,383.8-476.5,383.8 M-500.3,391.1l0,24
	c0,2.2,1.7,3.9,3.9,4l2.6,0l0,8.2c0,2,1.6,3.7,3.6,3.7c2,0,3.6-1.7,3.6-3.7l0-8.2l4.9,0l0,8.2c0,2,1.6,3.7,3.6,3.7
	c2,0,3.6-1.7,3.6-3.7l0-8.2l2.7,0c2.1,0,3.9-1.8,3.9-4l0-24L-500.3,391.1z M-459,394.1c0-2-1.6-3.7-3.6-3.7c-2,0-3.6,1.7-3.6,3.7
	l0,15.5c0,2,1.6,3.7,3.6,3.7c2,0,3.6-1.7,3.6-3.7L-459,394.1z"/>
</svg>
