<svg xmlns="http://www.w3.org/2000/svg" xmlns:xlink="http://www.w3.org/1999/xlink" preserveAspectRatio="xMidYMid" width="19" height="35" viewBox="0 0 19 35">
  <defs>
    <style>

      .cls-2 {
        fill: #cccccc;
        mix-blend-mode: luminosity;
      }
    </style>
  </defs>
  <path d="M17.430,19.031 C17.430,19.031 18.245,12.808 18.245,12.808 C18.245,12.808 11.988,12.808 11.988,12.808 C11.988,12.808 11.988,8.835 11.988,8.835 C11.988,7.035 12.499,5.807 15.121,5.807 C15.121,5.807 18.465,5.805 18.465,5.805 C18.465,5.805 18.465,0.241 18.465,0.241 C17.887,0.165 15.903,-0.005 13.590,-0.005 C8.766,-0.005 5.465,2.895 5.465,8.220 C5.465,8.220 5.465,12.808 5.465,12.808 C5.465,12.808 0.008,12.808 0.008,12.808 C0.008,12.808 0.008,19.031 0.008,19.031 C0.008,19.031 5.465,19.031 5.465,19.031 C5.465,19.031 5.465,34.995 5.465,34.995 C5.465,34.995 11.988,34.995 11.988,34.995 C11.988,34.995 11.988,19.031 11.988,19.031 C11.988,19.031 17.430,19.031 17.430,19.031 Z" id="path-1" class="cls-2" fill-rule="evenodd"/>
</svg>
