<svg version="1.1" xmlns="http://www.w3.org/2000/svg" xmlns:xlink="http://www.w3.org/1999/xlink" x="0px" y="0px"
                                 viewBox="0 0 262 60" xml:space="preserve">
 <style type="text/css">.st0{fill:#CCCCCC;}</style>
 <g>
  <text font-style="normal" font-weight="bold" xml:space="preserve" text-anchor="middle" font-family="Monospace" font-size="24" id="svg_4" y="23.67188" x="172.53124" stroke-linecap="null" stroke-linejoin="null" stroke-dasharray="null" stroke-width="0" fill="#CCCCCC">Disponible</text>
  <path id="st0" d="m89.1,41.9c0,-2.2 0.5,-4.1 1.5,-5.8c1,-1.7 2.4,-3 4.1,-3.9c1.7,-0.9 3.6,-1.3 5.7,-1.3c3.1,0 5.7,1 7.6,3.1c0.4,0.4 0.5,0.9 0.5,1.4c0,0.6 -0.2,1 -0.6,1.4c-0.4,0.4 -0.9,0.6 -1.5,0.6c-0.6,0 -1.1,-0.2 -1.5,-0.6c-1.3,-1.2 -2.8,-1.9 -4.4,-1.9c-1.9,0 -3.5,0.7 -4.8,2c-1.3,1.3 -1.9,3 -1.9,5c0,2 0.6,3.7 1.9,5c1.3,1.3 2.9,2 4.8,2c0.9,0 1.7,-0.2 2.6,-0.5c0.9,-0.3 1.5,-0.7 2,-1.1l0,-2.6l-3.9,0c-0.6,0 -1,-0.2 -1.4,-0.6c-0.4,-0.4 -0.6,-0.9 -0.6,-1.4c0,-0.6 0.2,-1 0.6,-1.4c0.4,-0.4 0.8,-0.6 1.4,-0.6l5.8,0c0.7,0 1.3,0.3 1.8,0.8c0.5,0.5 0.8,1.1 0.8,1.8l0,3.6c0,0.8 -0.2,1.5 -0.5,2.1c-0.4,0.7 -0.8,1.2 -1.4,1.7c-0.6,0.5 -1.3,0.9 -2.1,1.2c-0.8,0.3 -1.6,0.6 -2.5,0.8c-0.9,0.2 -1.7,0.2 -2.6,0.2c-1.6,0 -3,-0.3 -4.4,-0.8c-1.4,-0.5 -2.6,-1.3 -3.6,-2.2c-1,-0.9 -1.8,-2.1 -2.4,-3.5c-0.7,-1.3 -1,-2.9 -1,-4.5l0,0zm23,2.9c0,-1.5 0.3,-2.8 1,-4c0.6,-1.2 1.6,-2.2 2.8,-2.9c1.3,-0.7 2.7,-1.1 4.3,-1.1c1.7,0 3.1,0.4 4.4,1.1c1.3,0.7 2.2,1.7 2.8,2.9c0.6,1.2 1,2.6 1,4c0,1.1 -0.2,2.1 -0.6,3.1c-0.4,1 -0.9,1.8 -1.6,2.6c-0.7,0.7 -1.5,1.3 -2.6,1.8c-1,0.4 -2.2,0.6 -3.4,0.6c-1.6,0 -3.1,-0.4 -4.3,-1.1c-1.3,-0.7 -2.2,-1.7 -2.8,-3c-0.7,-1.1 -1,-2.5 -1,-4l0,0zm4.1,0c0,1.3 0.4,2.3 1.1,3.2c0.7,0.9 1.7,1.3 2.9,1.3c1.2,0 2.2,-0.4 2.9,-1.3c0.7,-0.9 1.1,-1.9 1.1,-3.2c0,-1.3 -0.4,-2.3 -1.1,-3.2c-0.7,-0.9 -1.7,-1.3 -2.9,-1.3c-1.2,0 -2.2,0.4 -2.9,1.3c-0.7,0.9 -1.1,2 -1.1,3.2l0,0zm14.2,0c0,-1.5 0.3,-2.8 1,-4c0.6,-1.2 1.6,-2.2 2.8,-2.9c1.3,-0.7 2.7,-1.1 4.3,-1.1c1.7,0 3.1,0.4 4.4,1.1c1.3,0.7 2.2,1.7 2.8,2.9c0.6,1.2 1,2.6 1,4c0,1.1 -0.2,2.1 -0.6,3.1c-0.4,1 -0.9,1.8 -1.6,2.6c-0.7,0.7 -1.5,1.3 -2.6,1.8c-1,0.4 -2.2,0.6 -3.4,0.6c-1.6,0 -3.1,-0.4 -4.3,-1.1c-1.3,-0.7 -2.2,-1.7 -2.8,-3c-0.7,-1.1 -1,-2.5 -1,-4l0,0zm4.2,0c0,1.3 0.4,2.3 1.1,3.2c0.7,0.9 1.7,1.3 2.9,1.3c1.2,0 2.2,-0.4 2.9,-1.3c0.7,-0.9 1.1,-1.9 1.1,-3.2c0,-1.3 -0.4,-2.3 -1.1,-3.2c-0.7,-0.9 -1.7,-1.3 -2.9,-1.3c-1.2,0 -2.2,0.4 -2.9,1.3c-0.7,0.9 -1.1,2 -1.1,3.2l0,0zm14.2,-0.2c0,-2.5 0.6,-4.4 1.9,-5.8c1.3,-1.4 2.9,-2.1 4.9,-2.1c1.9,0 3.5,0.8 4.8,2.4l0,-0.2c0,-0.6 0.2,-1 0.6,-1.4c0.4,-0.4 0.9,-0.6 1.5,-0.6c0.6,0 1,0.2 1.4,0.6c0.4,0.4 0.6,0.9 0.6,1.4l0,12.6c0,1.1 -0.2,2.1 -0.5,3c-0.3,0.9 -0.8,1.6 -1.3,2.1c-0.5,0.5 -1.2,1 -1.9,1.3c-0.7,0.3 -1.5,0.6 -2.2,0.7c-0.7,0.1 -1.5,0.2 -2.3,0.2c-1.2,0 -2.4,-0.2 -3.6,-0.5c-1.2,-0.3 -2,-0.8 -2.4,-1.4c-0.2,-0.3 -0.3,-0.6 -0.3,-0.9c0,-0.5 0.2,-0.9 0.5,-1.2c0.3,-0.3 0.7,-0.5 1.2,-0.5c0.3,0 0.6,0.1 0.9,0.2c1,0.6 2.3,1 3.7,1c0.5,0 1,-0.1 1.5,-0.2c0.5,-0.1 0.9,-0.3 1.3,-0.6c0.4,-0.3 0.8,-0.7 1,-1.2c0.2,-0.5 0.4,-1.2 0.4,-1.9l0,-1.6c-1.3,1.6 -2.9,2.4 -4.8,2.4c-2,0 -3.6,-0.7 -4.9,-2.1c-1.3,-1.4 -2,-3.2 -2,-5.7l0,0zm5.2,-3.1c-0.7,0.8 -1.1,1.8 -1.1,3.1c0,1.3 0.4,2.3 1.1,3.1c0.7,0.8 1.7,1.1 2.8,1.1c0.7,0 1.3,-0.2 2,-0.5c0.7,-0.3 1.2,-0.8 1.5,-1.2l0,-5c-0.3,-0.5 -0.8,-0.9 -1.5,-1.3c-0.7,-0.4 -1.3,-0.5 -2,-0.5c-1.1,0 -2,0.4 -2.8,1.2l0,0zm14.5,9.2l0,-17.7c0,-0.6 0.2,-1 0.6,-1.4c0.4,-0.4 0.9,-0.6 1.5,-0.6c0.5,0 1,0.2 1.4,0.6c0.4,0.4 0.6,0.9 0.6,1.4l0,17.7c0,0.6 -0.2,1 -0.6,1.4c-0.4,0.4 -0.9,0.6 -1.5,0.6c-0.6,0 -1,-0.2 -1.4,-0.6c-0.4,-0.4 -0.6,-0.8 -0.6,-1.4l0,0zm7.1,-5.9c0,-1.5 0.3,-2.8 1,-4.1c0.7,-1.2 1.6,-2.2 2.9,-2.9c1.2,-0.7 2.6,-1.1 4.1,-1.1c1.7,0 3.2,0.5 4.5,1.4c1.3,0.9 2.2,2.2 2.7,3.8c0.3,1 0.5,1.8 0.5,2.3c0,0.5 -0.2,0.9 -0.6,1.3c-0.4,0.4 -0.8,0.5 -1.3,0.5l-9.5,0c0.1,1 0.6,1.9 1.4,2.6c0.8,0.7 1.8,1 3.1,1c1.1,0 2.1,-0.3 3,-0.8c0.3,-0.1 0.5,-0.2 0.8,-0.2c0.4,0 0.8,0.2 1.2,0.5c0.4,0.3 0.5,0.7 0.5,1.2c0,0.4 -0.2,0.8 -0.6,1.2c-0.4,0.3 -1,0.6 -1.6,0.8c-0.6,0.2 -1.3,0.3 -1.9,0.4c-0.7,0.1 -1.3,0.1 -1.8,0.1c-2.4,0 -4.4,-0.7 -5.9,-2.2c-1.7,-1.4 -2.5,-3.4 -2.5,-5.8l0,0zm4.2,-1.4l7.6,0c0,-0.4 -0.1,-0.8 -0.3,-1.2c-0.2,-0.4 -0.4,-0.7 -0.7,-1.1c-0.3,-0.3 -0.7,-0.6 -1.2,-0.8c-0.5,-0.2 -1.1,-0.3 -1.7,-0.3c-0.6,0 -1.1,0.1 -1.6,0.3c-0.5,0.2 -0.9,0.5 -1.2,0.8c-0.3,0.3 -0.5,0.7 -0.7,1.1c-0.1,0.4 -0.2,0.8 -0.2,1.2l0,0zm22.7,7.1l0,-16.7c0,-0.7 0.3,-1.3 0.8,-1.8c0.5,-0.5 1.1,-0.8 1.8,-0.8l7.4,0c1.1,0 2.1,0.2 3.1,0.5c0.9,0.4 1.7,0.9 2.3,1.5c0.6,0.6 1,1.4 1.4,2.2c0.4,0.8 0.5,1.7 0.5,2.7c0,0.9 -0.2,1.8 -0.5,2.6c-0.3,0.8 -0.8,1.6 -1.4,2.2c-0.6,0.6 -1.3,1.1 -2.3,1.5c-0.9,0.4 -1.9,0.6 -3.1,0.6l-5.4,0l0,5.5c0,0.6 -0.2,1.1 -0.7,1.6c-0.4,0.4 -1,0.7 -1.6,0.7c-0.6,0 -1.1,-0.2 -1.6,-0.7c-0.4,-0.5 -0.7,-1 -0.7,-1.6l0,0zm4.6,-9.5l4.8,0c0.9,0 1.7,-0.3 2.3,-0.8c0.6,-0.5 0.9,-1.2 0.9,-2.1c0,-0.9 -0.3,-1.6 -0.9,-2.1c-0.6,-0.5 -1.3,-0.8 -2.3,-0.8l-4.8,0l0,5.8l0,0zm15.3,9.7l0,-17.7c0,-0.6 0.2,-1 0.6,-1.4c0.4,-0.4 0.9,-0.6 1.5,-0.6c0.5,0 1,0.2 1.4,0.6c0.4,0.4 0.6,0.9 0.6,1.4l0,17.7c0,0.6 -0.2,1 -0.6,1.4c-0.4,0.4 -0.9,0.6 -1.5,0.6c-0.6,0 -1,-0.2 -1.4,-0.6c-0.4,-0.4 -0.6,-0.8 -0.6,-1.4l0,0zm7.1,-2.9c0,-0.7 0.1,-1.3 0.3,-1.9c0.2,-0.6 0.5,-1 0.9,-1.4c0.4,-0.4 0.8,-0.7 1.2,-0.9c0.5,-0.3 0.9,-0.4 1.4,-0.6c0.5,-0.1 1,-0.2 1.5,-0.2c1,0 2,0.2 2.8,0.5c0.9,0.3 1.5,0.8 2.1,1.4l0,-2.1c0,-0.8 -0.3,-1.4 -0.9,-1.9c-0.6,-0.5 -1.4,-0.7 -2.5,-0.7c-1.3,0 -2.4,0.3 -3.5,1c-0.2,0.1 -0.5,0.2 -0.7,0.2c-0.4,0 -0.8,-0.1 -1.1,-0.4c-0.3,-0.3 -0.5,-0.7 -0.5,-1.1c0,-0.3 0.1,-0.5 0.2,-0.8c0.4,-0.7 1.3,-1.2 2.6,-1.6c1.3,-0.4 2.5,-0.6 3.6,-0.6c0.9,0 1.8,0.1 2.5,0.3c0.8,0.2 1.5,0.5 2.1,1c0.7,0.4 1.2,1 1.5,1.8c0.4,0.8 0.5,1.7 0.5,2.8l0,8.2c0,0.6 -0.2,1 -0.6,1.4c-0.4,0.4 -0.9,0.6 -1.4,0.6l-0.3,0c-0.1,0 -0.3,0 -0.4,-0.1c-0.2,0 -0.4,-0.1 -0.6,-0.2c-0.2,-0.1 -0.4,-0.3 -0.5,-0.6c-0.2,-0.3 -0.2,-0.6 -0.2,-0.9c-0.5,0.6 -1.2,1.1 -2.1,1.5c-0.9,0.3 -1.8,0.5 -2.8,0.5c-0.6,0 -1.3,-0.1 -1.9,-0.3c-0.6,-0.2 -1.2,-0.5 -1.7,-0.9c-0.5,-0.4 -1,-0.9 -1.3,-1.6c0,-0.8 -0.2,-1.5 -0.2,-2.4l0,0zm4.1,0.1c0,0.7 0.3,1.3 0.8,1.7c0.5,0.4 1.2,0.6 2.1,0.6c0.7,0 1.3,-0.1 1.9,-0.3c0.6,-0.2 1,-0.6 1.4,-1l0,-1.9c-0.3,-0.4 -0.8,-0.8 -1.4,-1c-0.6,-0.2 -1.2,-0.3 -1.9,-0.3c-0.8,0 -1.5,0.2 -2.1,0.6c-0.5,0.3 -0.8,0.9 -0.8,1.6l0,0zm12.9,-9c0,-0.5 0.2,-1 0.6,-1.4c0.4,-0.4 0.9,-0.6 1.5,-0.6c0.4,0 0.8,0.1 1.1,0.4c0.3,0.2 0.6,0.6 0.8,1l3.6,9.6l3.6,-9.6c0.1,-0.4 0.4,-0.7 0.8,-1c0.4,-0.2 0.8,-0.4 1.2,-0.4c0.6,0 1.1,0.2 1.4,0.6c0.4,0.4 0.6,0.9 0.6,1.4c0,0.3 0,0.5 -0.1,0.7l-6.2,15.5c-1,2.5 -2.8,3.7 -5.3,3.7c-0.7,0 -1.3,-0.2 -1.8,-0.5c-0.5,-0.3 -0.7,-0.8 -0.7,-1.3c0,-0.5 0.2,-0.9 0.5,-1.3c0.3,-0.4 0.8,-0.5 1.4,-0.5l0.5,0c0.8,-0.1 1.3,-0.5 1.5,-1.1l0.6,-1.3l-5.3,-13.2c-0.2,-0.2 -0.3,-0.4 -0.3,-0.7l0,0z" class="st0"/>
  <path fill="white" id="st0" d="m50,23.1c0,-2 -1.6,-3.7 -3.6,-3.7c-2,0 -3.6,1.7 -3.6,3.7l0,15.5c0,2 1.6,3.7 3.6,3.7c2,0 3.6,-1.7 3.6,-3.7l0,-15.5zm-41.3,-3l0,24c0,2.2 1.7,3.9 3.9,4l2.6,0l0,8.2c0,2 1.6,3.7 3.6,3.7c2,0 3.6,-1.7 3.6,-3.7l0,-8.2l4.9,0l0,8.2c0,2 1.6,3.7 3.6,3.7c2,0 3.6,-1.7 3.6,-3.7l0,-8.2l2.7,0c2.1,0 3.9,-1.8 3.9,-4l0,-24l-32.4,0zm23.8,-7.3c-0.8,0 -1.4,-0.6 -1.4,-1.4c0,-0.8 0.6,-1.4 1.4,-1.4c0.8,0 1.4,0.6 1.4,1.4c0,0.7 -0.7,1.4 -1.4,1.4zm-15,0c-0.8,0 -1.4,-0.6 -1.4,-1.4c0,-0.8 0.6,-1.4 1.4,-1.4c0.8,0 1.4,0.6 1.4,1.4c0,0.7 -0.6,1.4 -1.4,1.4zm-13.9,6.6c-2,0 -3.6,1.7 -3.6,3.7l0,15.5c0,2 1.6,3.7 3.6,3.7c2,0 3.6,-1.7 3.6,-3.7l0,-15.5c0.1,-2 -1.5,-3.7 -3.6,-3.7zm29.4,-13.9l2.5,-4.7c0.1,-0.2 0,-0.6 -0.2,-0.7c-0.2,-0.1 -0.6,0 -0.7,0.2l-2.6,4.8c-2.2,-1 -4.6,-1.5 -7.1,-1.5c-2.6,0 -5,0.5 -7.1,1.5l-2.6,-4.8c-0.1,-0.3 -0.4,-0.3 -0.7,-0.2c-0.2,0.1 -0.3,0.5 -0.2,0.7l2.5,4.7c-5,2.6 -8.4,7.6 -8.4,13.3l32.8,0c0.2,-5.7 -3.2,-10.7 -8.2,-13.3z"/>
 </g>
</svg>