<?xml version="1.0" encoding="utf-8"?>
<!-- Generator: Adobe Illustrator 17.1.0, SVG Export Plug-In . SVG Version: 6.00 Build 0)  -->
<!DOCTYPE svg PUBLIC "-//W3C//DTD SVG 1.1//EN" "http://www.w3.org/Graphics/SVG/1.1/DTD/svg11.dtd">
<svg version="1.1" id="Layer_1" xmlns="http://www.w3.org/2000/svg" xmlns:xlink="http://www.w3.org/1999/xlink" x="0px" y="0px" 
	 viewBox="-254.8 -105.7 283.9 70" enable-background="new -254.8 -105.7 283.9 70" xml:space="preserve">
<g>
	<g>
		<g>
			<path fill="none" stroke="#FFFFFF" stroke-width="4" stroke-linecap="round" stroke-linejoin="round" d="M-212.4-92.2l-20.2-11.5
				l-20.2,11.5l20.2,10.6L-212.4-92.2z M-232.6-81.6l-20.2-10.5v22l0,0l20.2,10.6L-232.6-81.6L-232.6-81.6L-232.6-81.6z
				 M-232.6-59.7v-22l20.2,11.5L-232.6-59.7L-232.6-59.7z M-232.6-37.7v-22l-20.2,11.5L-232.6-37.7L-232.6-37.7z M-212.3-48.2
				l-0.1-22l-20.2,10.5l0.1,0v22L-212.3-48.2L-212.3-48.2z"/>
		</g>
	</g>
</g>
<g>
	<g>
		<path fill="#FFFFFF" d="M-191-56.8c-0.5-0.3-0.8-0.9-0.8-1.6c0-1.2,0.9-2,2-2c0.5,0,1,0.2,1.3,0.5c3.4,2.9,6.9,4.3,11.5,4.3
			c4.9,0,8.1-2.6,8.1-6.2v-0.1c0-3.4-1.8-5.3-9.4-6.9c-8.4-1.8-12.2-4.5-12.2-10.5v-0.2c0-5.7,5.1-9.9,11.9-9.9
			c4.8,0,8.3,1.2,11.6,3.6c0.4,0.3,0.9,0.9,0.9,1.7c0,1.1-0.9,2-2,2c-0.5,0-0.8-0.1-1.2-0.4c-3.1-2.2-6-3.2-9.4-3.2
			c-4.8,0-7.8,2.6-7.8,5.9v0.1c0,3.4,1.8,5.3,9.9,7.1c8.1,1.7,11.8,4.8,11.8,10.3v0.1c0,6.2-5.2,10.3-12.4,10.3
			C-182.5-51.9-187-53.6-191-56.8z M-126.8-89.2h-0.5c-0.8,0-1.5,0.4-1.9,1.1l-13,19.5l-13-19.5c-0.4-0.6-1.1-1.1-1.9-1.1h-0.5
			c-1.1,0-2,1-2,2v34.4h4v-28.8l11.6,17c0.5,0.7,1.1,1.1,1.7,1.1s1.3-0.4,1.7-1.1l11.7-17.1v28.9h4.1v-34.4
			C-124.8-88.3-125.8-89.2-126.8-89.2z M-90.2-52.7h4.5l-15-34.8c-0.4-1.1-1.2-1.7-2.4-1.7h-0.2c-1.2,0-2,0.7-2.4,1.7l-14.9,34.8
			h4.4l2.9-6.9h16.7l-1.6-3.9h-13.5l8.5-20.4L-90.2-52.7L-90.2-52.7z M-54.5-76.4c0-8.1-5.1-12.9-13.7-12.9h-11.1
			c-1,0-1.7,0.7-1.9,1.6c-0.1,0.2-0.1,0.3-0.1,0.5v34.6h3.9v-10.8h9.5c0.9,0,1.7-0.1,2.5-0.2l4.6,11h4.5l-5.2-12.1
			C-57-66.7-54.5-70.8-54.5-76.4L-54.5-76.4z M-68.2-67.7h-9.3v-17.5h9.5c6.1,0,9.6,3.1,9.6,8.7C-58.4-70.9-61.9-67.7-68.2-67.7z
			 M-25.1-89.2h-25.2c-1.1,0-1.9,0.9-1.9,1.9c0,1.1,0.9,1.8,1.9,1.8h10.6v32.7h4.2v-32.7H-25c1.1,0,1.9-0.8,1.9-1.8
			C-23.1-88.3-24-89.2-25.1-89.2z M2.4-56.5h-15.9l0.1-30.7c0-1.2-1-2.1-2.1-2.1s-2,1-2,2.1l-0.1,32.4c0,1.2,1,2.1,2,2.1H2.4V-56.5z
			 M10.3-76.2L2-88.1c-0.5-0.7-1.1-1.3-2-1.3c-1.2,0-2.1,1-2.1,2c0,0.5,0.2,1,0.5,1.4l11.9,16.6V-76.2z M27.1-89.3
			c-0.9,0-1.4,0.5-1.9,1.3L10.8-67.8v15H15V-67l13.6-18.8c0.3-0.4,0.6-1,0.6-1.5C29.1-88.4,28.3-89.3,27.1-89.3z"/>
	</g>
</g>
</svg>
