<svg xmlns="http://www.w3.org/2000/svg" xmlns:xlink="http://www.w3.org/1999/xlink" preserveAspectRatio="xMidYMid" width="44" height="35" viewBox="0 0 44 35">
  <defs>
    <style>

      .cls-2 {
        fill: #cccccc;
      }
    </style>
  </defs>
  <path d="M44.025,4.145 C42.405,4.847 40.663,5.322 38.837,5.535 C40.702,4.442 42.136,2.711 42.809,0.647 C41.066,1.660 39.133,2.396 37.074,2.792 C35.425,1.074 33.077,0.002 30.480,0.002 C25.491,0.002 21.447,3.958 21.447,8.836 C21.447,9.531 21.526,10.204 21.680,10.850 C14.173,10.483 7.518,6.966 3.062,1.617 C2.286,2.925 1.841,4.442 1.841,6.061 C1.841,9.126 3.435,11.833 5.857,13.415 C4.378,13.371 2.984,12.971 1.767,12.309 C1.767,12.309 1.767,12.421 1.767,12.421 C1.767,16.700 4.880,20.273 9.011,21.085 C8.254,21.285 7.454,21.396 6.632,21.396 C6.051,21.396 5.483,21.338 4.932,21.235 C6.081,24.745 9.416,27.299 13.369,27.373 C10.279,29.742 6.386,31.156 2.151,31.156 C1.423,31.156 0.705,31.112 -0.002,31.031 C3.994,33.536 8.743,35.000 13.846,35.000 C30.459,35.000 39.544,21.538 39.544,9.861 C39.544,9.480 39.534,9.099 39.520,8.717 C41.281,7.472 42.811,5.917 44.025,4.145 Z" id="path-1" class="cls-2" fill-rule="evenodd"/>
</svg>
